<?xml version="1.0" encoding="utf-8"?>
<!-- Generator: Adobe Illustrator 24.1.3, SVG Export Plug-In . SVG Version: 6.00 Build 0)  -->
<svg version="1.1" xmlns="http://www.w3.org/2000/svg" xmlns:xlink="http://www.w3.org/1999/xlink" x="0px" y="0px"
	 viewBox="0 0 1920 1080" style="enable-background:new 0 0 1920 1080;" xml:space="preserve">
<style type="text/css">
	.st0{fill:#EFEFEF;}
	.st1{fill:#CFD1D4;}
	.st2{fill:#8B8BF2;}
	.st3{fill:#F99E82;}
	.st4{fill:none;stroke:#262E60;stroke-miterlimit:10;}
	.st5{fill:#203049;}
	.st6{fill:none;stroke:#0A0A0A;stroke-miterlimit:10;}
	.st7{fill:none;stroke:#000000;stroke-miterlimit:10;}
	.st8{opacity:0.46;}
	.st9{fill:#FFFFFF;}
	.st10{opacity:0.21;}
	.st11{fill:#1A2E35;}
	.st12{opacity:0.3;}
	.st13{display:none;}
	.st14{display:inline;fill:#992632;}
	.st15{fill:none;stroke:#000000;stroke-width:0.5;stroke-miterlimit:10;}
	.st16{opacity:0.26;fill:#FFFFFF;}
	.st17{fill:#FFFFFF;stroke:#000000;stroke-miterlimit:10;}
	.st18{fill:none;stroke:#BC5539;stroke-miterlimit:10;}
	.st19{clip-path:url(#SVGID_2_);}
	.st20{fill:none;stroke:#FFFFFF;stroke-miterlimit:10;}
	.st21{clip-path:url(#SVGID_4_);fill:#203049;}
	.st22{clip-path:url(#SVGID_4_);fill:#8B8BF2;}
	.st23{fill:none;stroke:#2D3038;stroke-width:0.5;stroke-miterlimit:10;}
	.st24{clip-path:url(#SVGID_6_);fill:#203049;}
	.st25{clip-path:url(#SVGID_6_);fill:#8B8BF2;}
	.st26{fill:none;stroke:#2D3038;stroke-width:0.25;stroke-miterlimit:10;}
	.st27{fill:none;stroke:#232323;stroke-width:0.75;stroke-miterlimit:10;}
	.st28{opacity:0.23;fill:#FFFFFF;}
	.st29{fill:#111926;}
	.st30{fill:#A8A7A7;}
	.st31{fill:#EDE7D1;}
	.st32{display:none;fill:#55585B;}
	.st33{fill:none;stroke:#111926;stroke-miterlimit:10;}
	.st34{fill-rule:evenodd;clip-rule:evenodd;}
	.st35{fill-rule:evenodd;clip-rule:evenodd;fill:#FFFFFF;}
</style>
<g id="Bg">
	<path class="st0" d="M297.3,983.4c-80.9-59.7-111.4-167.8-112-268.3c-0.3-46.4,4.7-93.4,20.4-137.1
		c44.3-123.8,180-207.8,310.5-192.3c58.7,7,115.3,31.7,174.4,29.9c63.4-2,122-34.4,171.9-73.4c49.9-39,94-85.4,145.4-122.4
		c84.5-60.8,193.8-94.8,294.5-68.2s184.5,124.6,174,228.2c-3.1,30.8-13.9,61.1-10.7,91.8c4.7,45.8,39,82.7,74.6,112
		c35.5,29.3,75.2,56.1,98.1,96c25.9,45.2,26.4,100.7,18.4,152.2c-9.3,60.3-36.9,126.8-95.2,144.8"/>
	<ellipse class="st1" cx="1004.5" cy="993.8" rx="912.5" ry="35"/>
</g>
<g id="Wheel_2_">
	<path class="st1" d="M633.3,192.5l-13.9-10.4c0.6-8.1,0-16.4-2-24.5l12-12.6c0.4-0.4,0.5-1.1,0.2-1.6l-9.6-18.5
		c-0.3-0.5-0.9-0.8-1.5-0.8l-17.2,2.5c-5.4-6.4-11.8-11.7-18.8-15.8l-0.4-17.4c0-0.6-0.4-1.1-1-1.3l-19.9-6.3
		c-0.6-0.2-1.2,0-1.6,0.5l-10.4,13.9c-8.1-0.6-16.4,0-24.5,2l-12.6-12c-0.4-0.4-1.1-0.5-1.6-0.2l-18.5,9.6c-0.5,0.3-0.8,0.9-0.8,1.5
		l2.5,17.2c-6.4,5.4-11.7,11.8-15.8,18.8l-17.4,0.4c-0.6,0-1.1,0.4-1.3,1l-6.3,19.9c-0.2,0.6,0,1.2,0.5,1.6l13.9,10.4
		c-0.6,8.1,0,16.4,2,24.5l-12,12.6c-0.4,0.4-0.5,1.1-0.2,1.6l9.6,18.5c0.3,0.5,0.9,0.8,1.5,0.8l17.2-2.5
		c5.4,6.4,11.8,11.7,18.8,15.8l0.4,17.4c0,0.6,0.4,1.1,1,1.3l19.9,6.3c0.6,0.2,1.2,0,1.6-0.5l10.4-13.9c8.1,0.6,16.4,0,24.5-2
		l12.6,12c0.4,0.4,1.1,0.5,1.6,0.2l18.5-9.6c0.5-0.3,0.8-0.9,0.8-1.5l-2.5-17.2c6.4-5.4,11.7-11.8,15.8-18.8l17.4-0.4
		c0.6,0,1.1-0.4,1.3-1l6.3-19.9C634,193.5,633.8,192.9,633.3,192.5z M515.6,142.7c17.8-15.8,45.1-14.1,60.9,3.8
		c7.6,8.6,11.4,19.7,10.7,31.2c-0.7,11.5-5.9,22-14.5,29.7c-17.8,15.8-45.1,14.1-60.9-3.8c-1.4-1.6-2.7-3.3-3.8-5
		C496.5,180.9,499.4,157,515.6,142.7z"/>
</g>
<g id="Wheel">
	<path class="st1" d="M841.5,168l-8.4-6.3c0.4-4.9,0-9.8-1.2-14.7l7.2-7.6c0.3-0.3,0.3-0.7,0.1-1l-5.8-11.2
		c-0.2-0.3-0.5-0.5-0.9-0.5l-10.4,1.5c-3.3-3.8-7.1-7-11.3-9.5l-0.2-10.5c0-0.4-0.2-0.7-0.6-0.8l-12-3.8c-0.3-0.1-0.7,0-1,0.3
		l-6.3,8.4c-4.9-0.4-9.8,0-14.7,1.2l-7.6-7.2c-0.3-0.3-0.7-0.3-1-0.1l-11.2,5.8c-0.3,0.2-0.5,0.5-0.5,0.9l1.5,10.4
		c-3.8,3.3-7,7.1-9.5,11.3l-10.5,0.2c-0.4,0-0.7,0.2-0.8,0.6l-3.8,12c-0.1,0.3,0,0.7,0.3,1l8.4,6.3c-0.4,4.9,0,9.8,1.2,14.7
		l-7.2,7.6c-0.3,0.3-0.3,0.7-0.1,1l5.8,11.2c0.2,0.3,0.5,0.5,0.9,0.5l10.4-1.5c3.3,3.8,7.1,7,11.3,9.5L764,208
		c0,0.4,0.2,0.7,0.6,0.8l12,3.8c0.3,0.1,0.7,0,1-0.3l6.3-8.4c4.9,0.4,9.8,0,14.7-1.2l7.6,7.2c0.3,0.3,0.7,0.3,1,0.1l11.2-5.8
		c0.3-0.2,0.5-0.5,0.5-0.9l-1.5-10.4c3.8-3.3,7-7.1,9.5-11.3l10.5-0.2c0.4,0,0.7-0.2,0.8-0.6l3.8-12
		C841.9,168.6,841.8,168.2,841.5,168z M770.6,138c10.7-9.5,27.2-8.5,36.7,2.3c4.6,5.2,6.9,11.9,6.5,18.8c-0.4,6.9-3.5,13.3-8.7,17.9
		c-10.7,9.5-27.2,8.5-36.7-2.3c-0.9-1-1.6-2-2.3-3C759.1,161,760.8,146.6,770.6,138z"/>
</g>
<g id="Wheel_1_">
	<path class="st1" d="M1738.5,296l-8.4-6.3c0.4-4.9,0-9.8-1.2-14.7l7.2-7.6c0.3-0.3,0.3-0.7,0.1-1l-5.8-11.2
		c-0.2-0.3-0.5-0.5-0.9-0.5l-10.4,1.5c-3.3-3.8-7.1-7-11.3-9.5l-0.2-10.5c0-0.4-0.2-0.7-0.6-0.8l-12-3.8c-0.3-0.1-0.7,0-1,0.3
		l-6.3,8.4c-4.9-0.4-9.8,0-14.7,1.2l-7.6-7.2c-0.3-0.3-0.7-0.3-1-0.1l-11.2,5.8c-0.3,0.2-0.5,0.5-0.5,0.9l1.5,10.4
		c-3.8,3.3-7,7.1-9.5,11.3l-10.5,0.2c-0.4,0-0.7,0.2-0.8,0.6l-3.8,12c-0.1,0.3,0,0.7,0.3,1l8.4,6.3c-0.4,4.9,0,9.8,1.2,14.7
		l-7.2,7.6c-0.3,0.3-0.3,0.7-0.1,1l5.8,11.2c0.2,0.3,0.5,0.5,0.9,0.5l10.4-1.5c3.3,3.8,7.1,7,11.3,9.5l0.2,10.5
		c0,0.4,0.2,0.7,0.6,0.8l12,3.8c0.3,0.1,0.7,0,1-0.3l6.3-8.4c4.9,0.4,9.8,0,14.7-1.2l7.6,7.2c0.3,0.3,0.7,0.3,1,0.1l11.2-5.8
		c0.3-0.2,0.5-0.5,0.5-0.9l-1.5-10.4c3.8-3.3,7-7.1,9.5-11.3l10.5-0.2c0.4,0,0.7-0.2,0.8-0.6l3.8-12
		C1738.9,296.6,1738.8,296.2,1738.5,296z M1667.6,266c10.7-9.5,27.2-8.5,36.7,2.3c4.6,5.2,6.9,11.9,6.5,18.8
		c-0.4,6.9-3.5,13.3-8.7,17.9c-10.7,9.5-27.2,8.5-36.7-2.3c-0.9-1-1.6-2-2.3-3C1656.1,289,1657.8,274.6,1667.6,266z"/>
</g>
<g id="Grap">
	<g>
		<rect x="1105.8" y="221.9" class="st2" width="19.5" height="70"/>
		<rect x="1141.5" y="190.6" class="st2" width="19.5" height="101.2"/>
		<rect x="1177.1" y="221.9" class="st2" width="19.5" height="70"/>
		<rect x="1212.8" y="199.4" class="st2" width="19.5" height="92.4"/>
		<rect x="1248.5" y="214.5" class="st2" width="14.3" height="77.4"/>
	</g>
</g>
<g id="R_Leg_4_">
	<g>
		<path class="st3" d="M464.8,912.7c-6,8.3-18.8,30.9-14.7,38.5c1.2,2.2,3.2,4.1,5.2,5.9c5.4,4.9,10.9,9.8,16.3,14.7
			c2.8,2.5,5.7,5.1,9.8,6.4c3,1,6.6,1.3,10.1,1.4c12.6,0.7,26.3,0.7,38.4-4.6c0.7-0.3,1.5-0.7,2-1.2c1.1-1.3-0.4-2.7-1.9-3.4
			c-4.9-2.4-10.6-3.9-15.4-6.4c-14.2-7.5-17.1-22.5-24.6-34.5c-0.6-1-1.4-2.1-2.8-2.6c-1-0.4-2.3-0.3-3.5-0.3
			c-5.8,0.1-4.2-9.1-10-8.9"/>
		<path d="M455.6,990.4c0-1.2-1-20.6-4.2-23.9c-3.2-3.3-11.3-7.1-11.3-7.1l10.5-22c0,0,11,18.1,15.8,21.2
			c4.8,3.1,16.1,11.4,25.9,11.4c9.8,0,28.1-5.9,28.1-5.9s22.7,10.6,22.6,13c-0.1,2.4-5.1,5.5-5.1,5.5l-62.5,2.9l-11.1-13.2
			l-0.5,17.1L455.6,990.4z"/>
		<g>
			<path class="st4" d="M464.1,989.3c-0.3-5.1-0.2-10.2,0.2-15.3"/>
		</g>
	</g>
	<path class="st5" d="M429.2,582.2L507.3,928l-63.9,18.8c-6.2-28.1-38.5-108.5-55.2-167.2C358.9,677.2,358,631.9,358,631.9
		L429.2,582.2z"/>
	<path d="M354.2,639.5c0,0,22.9-18.1,21.7-17c-1.3,1.1,19.8,173.5,19.8,173.5L354.2,639.5z"/>
	<path class="st6" d="M501.8,912.5c-20.9,3.3-48.1,13.2-61.3,18.9"/>
	<path class="st7" d="M372.6,666.3c0,0,24.9,99.7,32.1,128.3c9.1,36.3,44.3,133,44.3,133"/>
</g>
<g id="LLeg_1_">
	<g>
		<path class="st3" d="M305.4,928.7c-6.6,7.8-21,29.5-17.4,37.3c1,2.3,2.9,4.3,4.8,6.2c5.1,5.3,10.1,10.5,15.2,15.8
			c2.6,2.7,5.3,5.5,9.3,7.1c3,1.2,6.5,1.7,9.9,2.2c12.5,1.6,26.2,2.6,38.6-1.8c0.8-0.3,1.6-0.6,2-1.1c1.2-1.3-0.2-2.7-1.6-3.5
			c-4.7-2.8-10.3-4.6-14.9-7.5c-13.6-8.5-15.4-23.6-22-36.1c-0.6-1.1-1.2-2.2-2.6-2.7c-1-0.4-2.2-0.5-3.4-0.6
			c-5.8-0.3-3.5-9.3-9.3-9.6"/>
		<path d="M290.7,1005.5c0.1-1.2,0.4-20.6-2.5-24.1c-2.9-3.5-10.7-7.9-10.7-7.9l12-21.2c0,0,9.6,18.9,14.2,22.3
			c4.6,3.4,15.2,12.5,25,13.2c9.8,0.7,28.4-3.9,28.4-3.9s21.9,12.2,21.6,14.6c-0.2,2.4-5.5,5.1-5.5,5.1l-62.5-1.6l-10.1-14
			l-1.7,17.1L290.7,1005.5z"/>
		<g>
			<path class="st4" d="M299.3,1005.1c0.1-5.1,0.5-10.2,1.3-15.3"/>
		</g>
	</g>
	<path class="st5" d="M277.8,953.5c1.4-35.6-16.5-331.3-15.3-334.7c3.6-10.4,113.4,3.7,113.4,3.7c0.6,8.9-37.5,298.1-33,332.9
		L277.8,953.5z"/>
	<path class="st6" d="M376.4,628.6c0.9,5.7-16.3,136.5-16.3,136.5"/>
	<path class="st7" d="M283.9,623.4c0,0-6.8,84.5-7.5,112.7c-1.5,57,0.9,204.6,0.9,204.6"/>
	<path class="st7" d="M342.6,941.8c-21.2-0.6-42.4-0.9-63.6-2.1"/>
</g>
<g id="L_Body_1_">
	<g>
		<path class="st5" d="M408.8,517.9c0,0,23.2,69,22.4,75.1c-0.8,6-54.4,35.1-54.4,35.1s-109.5,15.8-111.3,5.7
			c-4.1-23.5-9.4-36.8,1.9-72.6c7.4-23.5,18.9-38.7,18.9-38.7L408.8,517.9z"/>
		<path class="st7" d="M367.4,523.7c9.9,62.9,11.9,56,9.9,104.5"/>
		<polyline class="st7" points="376,530.7 382.8,571.5 377.9,583.6 		"/>
		<path class="st7" d="M311.5,554c4,1.3,8.6-0.4,12-2.6c8.1-5.2,13.2-13.6,13.4-22.2"/>
		<path class="st6" d="M404.5,524.7c1.7,10.1,3.3,19.3,12.7,22.4"/>
		<path class="st7" d="M313.2,530.5c-13.8,22.7-22.6,82.7-22.6,108.5"/>
		<polygon class="st8" points="295.2,522.9 408.8,517.9 411.8,527.8 287.2,538.7 		"/>
	</g>
</g>
<g id="R_Arm_3_">
	<path class="st2" d="M397.6,348.3c0,0,11.2-4.8,24.5,10.6c11.1,12.9,32.1,75.7,38.6,95.7c1.4,4.3,2.2,8.7,2.5,13.2
		c0.7,10.6,0.1,19.9-4.2,22.2c-6.1,3.2-10.6,6.1-23,1c-1-0.4-12.5,4.1-19-16c-15.2-34.4-35.6-96.2-36.3-106.6
		C379.7,353.7,397.6,348.3,397.6,348.3z"/>
</g>
<g id="R_Leg_3_">
	<g>
		<path class="st3" d="M442.1,447c0,0,65.7-50.7,71.2-45.5s10.5,13.7,9.4,18.9s-55,70.1-70.5,75.5c-15.5,5.4-23.3-1.1-24.2-6.4
			C427.2,484.1,442.1,447,442.1,447z"/>
		<line class="st7" x1="501.5" y1="406" x2="454.6" y2="435.5"/>
		<path class="st2" d="M500.1,454.3l-24.5-33c0,0-35,14.5-39.9,20.7s-20.2,25.1-17.6,36.1s12.8,21.4,26.8,22.5
			C457.2,501.6,500.1,454.3,500.1,454.3z"/>
		<polyline class="st7" points="435.7,442 451.3,432.7 475.6,421.3 500.1,454.3 		"/>
	</g>
</g>
<g id="R_Finger_3_">
	<g>
		<path class="st3" d="M499,412.6c1.1-1.6,1.9-3.4,2.1-4.8l5.2-16.1c0.2-1.7,4.7-10.8,6.2-11.7l4.1-0.6c0,0,1.6-6.9,4.8-7.7
			c3.2-0.8,12.8,0,12.8,0l9.2,5c0,0-2.4,4-6.6,3.8c-4.2-0.2-8.3-1.4-8.3-1.4l-2.7,7.5c0,0-0.9,5.6-0.1,8s2.1,3.4,2.1,3.4
			s4.9-6,6.9-9.5c2.1-3.5,7.6-7.7,9.6-5.5c2,2.2-2.4,6.3-3.1,10.2l-0.9,5c0,0-3.8,6.1-4.2,7.2c-0.4,1.1-3.1,7.6-5.9,9.9
			c-2.8,2.3-14.3,7.6-14.3,7.6"/>
	</g>
</g>
<g id="HAir">
	<path d="M306.3,272.3c2.3,4.5,0.9,10.5-3.2,13.5c-2.9,2.1-7.1,3-8.2,6.4c-1.5,4.8,4.9,8.7,5,13.7c0.1,3.5-2.8,6.2-5.7,8.2
		c-2.9,2-6.1,3.9-7.3,7.1c-1.2,3.2,1.3,7.9,4.7,7c-5.4,1.8-10.4,5-14.2,9.2c35.9,18.2,82.1,14,114.1-10.5c-3.8-2.1-7.7-4.3-10.5-7.6
		c-2.8-3.3-4.4-8-2.8-12.1c0.6-1.6,1.7-3,2.2-4.6c1.5-4.8-3.1-10.4-8.1-9.8c1.2-8.5-3.8-16.6-9-23.4c-3.8-5-8.2-10-14.1-12.2
		c-9.5-3.6-19.9,1.1-29,5.6"/>
</g>
<g id="Body_3_">
	<path class="st3" d="M335.8,337.5c-3.8,0-57.7,15.2-56.9,18.2c0.8,3,62.3,27.3,74.4,29.6c12.1,2.3,34.2-29.6,34.9-32.7
		C389,349.7,335.8,337.5,335.8,337.5z"/>
	<g>
		<path class="st9" d="M297.5,346.1c0,0,33.7,27.1,48.9,31.6c15.2,4.6,36.1-29.6,36.1-29.6l14.9,3.6c0,0-1,27.8,4.9,37.8
			c8.1,13.7,11.1,22,7.5,38.7c-2.4,11.5,2.4,10-1.1,22.4c-8.4,29.8-9.1,69-9.1,69l-109,3.4c0,0-26.2-104.3-28.4-123.3
			c-1.5-12.5,9.4-40.7,16.6-50.7C282.5,344,297.5,346.1,297.5,346.1z"/>
		<path class="st7" d="M296.1,349.6c0,0,39.5,32.6,55.4,31.2c16.7-1.5,33.3-29,33.3-29"/>
		<path class="st2" d="M372.3,344.8c0,0,8.7,33.9,9.4,69c0.8,35.1,2.7,155.8,2.7,155.8l47.2-7.5c0,0-21.2-96.9-21.9-104.1
			c-0.7-7.2,16.9-31.1,9.7-49.6c-7.2-18.5-13.4-59.3-13.4-59.3L372.3,344.8z"/>
		<path class="st7" d="M402.6,367.2c-0.2,12.5,5.6,15.1,12,25.8c6.4,10.7,7.9,23.7,4.3,37.6c-1.6,6.2-8,21.2-9.4,27.3
			c-4.3,18,23.6,93.4,22.6,103.7"/>
		<path class="st2" d="M303.1,344.8c0,0,10.1,40.5,16.9,69c6.9,28.5,5,155.8,5,155.8l-81.1-8.5c0,0,25.9-86.8,25.5-91.5
			s-6.6-63.3-7.5-76.9c-0.9-13.6,4.1-48,4.1-48H303.1z"/>
		<path class="st10" d="M269.3,469.7l-25.5,91.5c0,0,57.5-43.9,56.6-51.7c-0.9-7.7-38.3-109.7-38.3-109.7L269.3,469.7z"/>
	</g>
</g>
<g id="L_Arm_3_">
	<g>
		<path class="st2" d="M225.9,426.3c1.2-23.8,11.7-63.1,21.7-72.6c17.9-17,43.4-4.1,43.4-4.1l-16.7,104.9l-0.3,0
			c-0.7,13.2-1.4,23.4-1.7,25c-1,4.9-10.3,25.3-17,27.4c-6.7,2.1-22.5-2.6-26.6-9.9C226.1,492.2,223.3,458.7,225.9,426.3z"/>
		<line class="st7" x1="279.7" y1="380.6" x2="273.1" y2="470.7"/>
	</g>
</g>
<g id="L_Hand_2_">
	<g>
		<path class="st3" d="M262.7,464c0,0,81.4,20.2,85.8,22.6c4.4,2.4,2.9,15.2-2.8,17c-5.7,1.8-43.6,7.9-67,5.7
			c-9.4-0.9-46.3,0.4-46.2-11.3c0-7,1.8-20.9,4.7-24.5C245,464,262.7,464,262.7,464z"/>
		<line class="st7" x1="319.8" y1="477.7" x2="262.3" y2="463.6"/>
		<path class="st2" d="M292.6,466.9c0,0-10.8,33.9-9.5,42.8s-49.6,0-52.4-6.9c-2.9-6.8-8.5-29.5,1.8-42.7s23.1-5,29.2-3.7
			C267.9,457.8,292.6,466.9,292.6,466.9z"/>
		<line class="st7" x1="292.6" y1="466.9" x2="261.8" y2="456.5"/>
	</g>
</g>
<g id="L_Finger_3_">
	<rect x="311.4" y="474.6" width="137.7" height="8.3"/>
	<g>
		<g>
			<path class="st11" d="M387.9,485.7c0.3,0,1.4-4.8,2.1-10.9c0.8-6.1,0.9-11,0.6-11.1c-0.3,0-0.8,4.9-1.6,10.9
				C388.3,480.8,387.6,485.7,387.9,485.7z"/>
		</g>
		<g class="st12">
			<path d="M399.5,490.1c1.6-0.8,4.6-3.2,5.5-4.8c0.9-1.6,0.4-4.1-1.4-4.6c-1-0.3-2,0.1-3,0.5c-2.6,1-5.1,2.2-7.6,3.4
				c1.3-1.8,2.6-4.4,1.2-6.2c-1.4-1.8-4.1-1.2-6.2-0.4c-4.7,1.8-9.3,4-14.2,5.4c-4.8,1.5-10,2.2-15,1.3c-1.9-0.3-3.8-1-5.3-2.2
				c-1.3-1.1-2.1-2.7-3.2-4c-2-2.6-4.9-4.4-8-5.2c-0.8-0.2-1.7-0.3-2.4,0.2c-1.2,0.8-0.9,2.6-0.6,4c0.8,4.5-0.7,9.5-4,12.7l11.9,3.1
				L399.5,490.1z"/>
		</g>
		<g>
			<path class="st3" d="M332.8,488.7c0,0,0.5-3.5,2.5-5.4c2-2,3.2-2.5,3.5-4.1s-1.6-3-1.6-4.7s2.9-3.4,6.3-1.6
				c3.5,1.7,4.8,5.9,5,7.5c0.3,1.6-1.2,4.5,0,6c1.2,1.6,7.6,0.7,7.6,0.7l20.6-1.4c0,0,12.8-11.8,20.8-7.6l-5.2,6.3
				c0,0,9.2-5.4,13.2-2.7l0.6,1.3l-23.3,15.8l-14.2,5.1l-38.8,0.6c0,0,0,0.1,0-5.5c0-5.6,2.7-9.9,2.7-9.9"/>
			<g>
				<path class="st7" d="M365.1,497.2c0,0.1,2.2,0,5.7-0.4c1.8-0.2,3.9-0.5,6.2-1.1c1.1-0.3,2.4-0.6,3.6-1.2
					c1.2-0.6,2.3-1.3,3.4-2.1c4.4-3.3,7.7-6.9,10-9.6c2.3-2.7,3.5-4.5,3.4-4.6c-0.1-0.1-1.5,1.6-3.9,4.1c-2.4,2.5-5.8,6.1-10.1,9.3
					c-1.1,0.8-2.2,1.5-3.2,2.1c-1.1,0.5-2.2,0.9-3.4,1.2c-2.2,0.6-4.3,1-6,1.3C367.2,496.7,365.1,497,365.1,497.2z"/>
			</g>
		</g>
	</g>
	<path d="M360.6,467.6l36.8-72.9c1.7-3.4,5.1-5.6,9-5.7l114.7-3.7c3.8-0.1,6.4,3.9,4.6,7.3l-43,83.1c-1.8,3.4-5.3,5.6-9.1,5.6
		L370,482.7C362.2,482.8,357.1,474.5,360.6,467.6z"/>
	<ellipse transform="matrix(0.907 -0.4211 0.4211 0.907 -140.305 226.4576)" class="st9" cx="442.7" cy="430.9" rx="9.9" ry="7.2"/>
</g>
<g id="Neck_2_">
	<g>
		<polygon class="st3" points="320.6,355.9 365.9,361.7 357.2,302.7 315.7,307.5 		"/>
		<path d="M328,327.3c19.5,11.4,34.2,9,34.2,9l-4.9-33.6l-41.6,10.4C315.6,313.1,317.6,321.2,328,327.3z"/>
	</g>
</g>
<g id="Face_3_">
	<g>
		<g>
			<g class="st13">
				
					<ellipse transform="matrix(0.9986 -5.245249e-02 5.245249e-02 0.9986 -14.2805 16.2367)" class="st14" cx="302.2" cy="280.2" rx="9" ry="9.3"/>
				<path class="st14" d="M287.9,290.6c0.2,3.4,2.9,6,6.1,5.8c3.2-0.2,5.6-3,5.5-6.4c-0.2-3.4-2.9-6-6.1-5.8
					C290.2,284.4,287.7,287.2,287.9,290.6z"/>
				<path class="st14" d="M284.8,299.5c0.1,2.8,2.5,5,5.1,4.9s4.8-2.6,4.6-5.4c-0.1-2.8-2.5-5-5.1-4.9
					C286.7,294.2,284.6,296.6,284.8,299.5z"/>
				<path class="st14" d="M282.9,307c0.1,2.3,2,4.1,4.2,4c2.2-0.1,3.9-2.1,3.7-4.4c-0.1-2.3-2-4.1-4.2-4
					C284.4,302.7,282.7,304.7,282.9,307z"/>
				<path class="st14" d="M281.8,312.9c0.1,2,1.7,3.5,3.5,3.4c1.9-0.1,3.3-1.8,3.2-3.7c-0.1-2-1.7-3.5-3.5-3.4
					C283.1,309.2,281.7,310.9,281.8,312.9z"/>
				<path class="st14" d="M284.7,315c0,0,3,7.6,1,7.7c-1.9,0.1-6.5-1.6-6.6-2.9C279.1,318.5,283.4,315.7,284.7,315z"/>
			</g>
			<g class="st13">
				<path class="st14" d="M366.9,265.5c1.7,4.9-0.8,10.1-5.6,11.7c-4.7,1.6-9.9-1.1-11.5-6c-1.7-4.9,0.8-10.1,5.6-11.7
					C360.1,258,365.2,260.6,366.9,265.5z"/>
				<path class="st14" d="M375.5,272.8c1.1,3.2-0.5,6.6-3.5,7.7c-3,1-6.4-0.7-7.4-3.9c-1.1-3.2,0.5-6.6,3.5-7.7
					C371.1,267.9,374.4,269.6,375.5,272.8z"/>
				
					<ellipse transform="matrix(0.9474 -0.3201 0.3201 0.9474 -70.2649 135.5216)" class="st14" cx="377" cy="281.5" rx="4.9" ry="5.2"/>
				<path class="st14" d="M386.2,286.2c0.7,2.2-0.3,4.5-2.4,5.2c-2.1,0.7-4.4-0.5-5.1-2.7c-0.7-2.2,0.3-4.5,2.4-5.2
					C383.2,282.8,385.5,284,386.2,286.2z"/>
				<path class="st14" d="M389.4,291.2c0.6,1.9-0.3,3.8-2,4.4c-1.8,0.6-3.7-0.4-4.3-2.3c-0.6-1.9,0.3-3.8,2-4.4
					C386.8,288.4,388.7,289.4,389.4,291.2z"/>
				<path class="st14" d="M387.5,294.3c0,0,0,8.1,1.9,7.5c1.8-0.6,5.5-3.9,5.1-5.1C394,295.4,388.9,294.5,387.5,294.3z"/>
			</g>
			<path class="st3" d="M308.2,302.9c5.7,18.8,25.6,29.7,41.7,24.8c16.1-4.9,22.2-23.7,16.5-42.5c-5.7-18.8-23.4-30-39.4-25.1
				C310.8,264.9,302.4,284.1,308.2,302.9z"/>
			<path d="M369.4,296.6c-1.1,0.2-5.8-12.8-6.4-16c-6.8,2.6-20.9,5-27.7,2.3c-6.8-2.7-12.4-9.3-12.8-16.8c1.4,3.4,1.2,7.5-0.5,10.7
				c-1.8,3.2-5.1,5.5-8.6,6c0.3,4.2,1.7,9.2,0,13.1c-1.6,3.9-5.9,6.9-9.9,5.6c-0.7-0.2-1.3-0.6-1.8-1.2c-0.5-0.6-0.6-1.5-0.7-2.3
				c-0.8-6.6-0.7-13.3,0.9-19.7c1.6-6.4,4.7-12.4,9.4-16.9c6-5.8,14.3-8.8,22.6-9.4c7.3-0.6,15.1,0.7,21.1,5.1
				c3.3,2.4,6,5.7,8.2,9.2C368.8,275.5,370.7,286,369.4,296.6z"/>
			<path class="st15" d="M345.4,290.4c1.3,3.4,2.6,6.8,4.7,9.8c0.4,0.6,0.9,1.2,1.1,1.9c0.4,1.7-1.1,3.3-2.8,3.8
				c-1.4,0.4-3.3-0.1-3.8-1.5"/>
			<g>
				<path class="st9" d="M351.3,311.5c0.2-1.7,0-3.3,0-3.3c-3.5,1.3-5.6,0.8-11.9,1.1c0,0,0.1,0.4,0.3,1
					C343.2,311.8,347.4,312.2,351.3,311.5z"/>
				<path class="st9" d="M339.7,310.4c0.7,2,2.8,6.2,7,6c3.1-0.2,4.2-2.7,4.5-4.9C347.4,312.2,343.2,311.8,339.7,310.4z"/>
			</g>
			<g>
				<path d="M350.8,289.9c0.3,0,0.7-0.1,0.9-0.4c0.7-1,1.9-1.6,3.1-1.8c1.2-0.1,2.5,0.2,3.4,1c0.4,0.3,1,0.3,1.4-0.1
					c0.3-0.4,0.3-1-0.1-1.4c-1.3-1.1-3.1-1.7-4.9-1.5c-1.7,0.2-3.4,1.1-4.4,2.5c-0.3,0.4-0.2,1,0.2,1.4
					C350.4,289.8,350.6,289.9,350.8,289.9z"/>
			</g>
			<g>
				<path d="M330,290.7c0.3,0,0.7-0.1,0.9-0.4c0.7-1,1.9-1.6,3.1-1.8c1.2-0.1,2.5,0.2,3.4,1c0.4,0.3,1,0.3,1.4-0.1
					c0.3-0.4,0.3-1-0.1-1.4c-1.4-1.1-3.1-1.6-4.9-1.4c-1.7,0.2-3.3,1.1-4.4,2.5c-0.3,0.4-0.2,1,0.2,1.4
					C329.7,290.6,329.8,290.7,330,290.7z"/>
			</g>
			<path class="st16" d="M329.1,306.6c0.1,1.4,1.4,2.5,3,2.4c1.6-0.1,2.8-1.3,2.8-2.7c-0.1-1.4-1.4-2.5-3-2.4
				C330.3,303.9,329,305.1,329.1,306.6z"/>
			<path class="st16" d="M355.6,302.9c0.1,1.4,1.4,2.5,3,2.4c1.6-0.1,2.8-1.3,2.8-2.7c-0.1-1.4-1.4-2.5-3-2.4
				C356.7,300.2,355.5,301.4,355.6,302.9z"/>
		</g>
	</g>
	<g>
		<path class="st3" d="M313.4,300.2c0.9,5.6-2.5,9.7-7.6,9.1c-5.1-0.6-10-5.7-10.9-11.3c-0.9-5.6,2.5-9.7,7.6-9.1
			C307.6,289.5,312.5,294.6,313.4,300.2z"/>
		<path class="st15" d="M297.5,298.6c0.1-2.3,2.1-4,4.1-4.1c2-0.1,4,1.1,5.6,2.5c1.6,1.4,2.9,3.2,3.8,5.2"/>
		<path class="st15" d="M303.5,303.5c-0.8-1.3-0.8-3.1,0-4.4c0.8-1.3,2.2-1.9,3.6-1.5"/>
	</g>
</g>
<g id="r_Eeys">
	<path d="M352.7,294c0.4,1.4,1.9,2.2,3.3,1.7c1.4-0.4,2.2-1.9,1.7-3.3c-0.4-1.4-1.9-2.2-3.3-1.7C353.1,291.1,352.3,292.6,352.7,294z
		"/>
</g>
<g id="G_L_Eeys_1_">
	<path d="M332.3,294.7c0.4,1.4,1.9,2.2,3.3,1.7c1.4-0.4,2.2-1.9,1.7-3.3c-0.4-1.4-1.9-2.2-3.3-1.7
		C332.7,291.9,331.9,293.3,332.3,294.7z"/>
</g>
<g id="R_Leg_2_">
	<g>
		<path class="st3" d="M699.6,904.6c-5,9.4-10.2,20.5-7,31c0.9,3.1,2.6,5.8,4.2,8.5c4.4,7.3,8.7,14.7,13.1,22
			c2.2,3.8,4.6,7.6,7.9,10.2c2.5,1.9,5.3,2.9,8.2,3.8c10.3,3.4,21.4,6.1,31.4,1.7c0.6-0.3,1.2-0.6,1.6-1.2c0.9-1.5-0.3-3.5-1.5-4.7
			c-3.9-4-8.6-7.1-12.4-11.2c-11.5-12.4-16.3-31.7-22.2-48.5c-0.5-1.4,1.6-3.4,0.5-4.3c-0.8-0.7-1.8-0.9-2.8-1.1
			c-4.7-1-9.4-2-14.1-2.9"/>
		<path d="M696.5,986.8c0-1.6-0.5-26.6-3.1-31.4c-2.5-4.8-2.8-12.7-2.8-12.7l2.6-24.8c0,0,8.7,25.4,12.6,30.3
			c3.9,4.9,12.9,17.8,21,19.7c8,1.9,23-2,23-2s18.3,18,18.2,21.2c-0.1,3.1-4.2,6-4.2,6l-50.9-8.7l-8.9-19.2l-0.7,21.8L696.5,986.8z"
			/>
	</g>
	<g>
		<g>
			<path class="st3" d="M674.7,703.3c0,0,2.2,14,1.6,38.7s18.6,177.2,18.6,177.2s28.7,0.2,29.4-2c0.7-2.2,11.3-164.3,13.7-202.2
				C739.1,695.8,674.7,703.3,674.7,703.3z"/>
		</g>
		<ellipse class="st3" cx="707" cy="711.6" rx="31.2" ry="30.7"/>
		<ellipse class="st3" cx="708.5" cy="911.4" rx="15.3" ry="17.3"/>
	</g>
</g>
<g id="L_Leg_1_">
	<g>
		<path class="st3" d="M615.6,904.6c-5,9.4-10.2,20.5-7,31c0.9,3.1,2.6,5.8,4.2,8.5c4.4,7.3,8.7,14.7,13.1,22
			c2.2,3.8,4.6,7.6,7.9,10.2c2.5,1.9,5.3,2.9,8.2,3.8c10.3,3.4,21.4,6.1,31.4,1.7c0.6-0.3,1.2-0.6,1.6-1.2c0.9-1.5-0.3-3.5-1.5-4.7
			c-3.9-4-8.6-7.1-12.4-11.2c-11.5-12.4-16.3-31.7-22.2-48.5c-0.5-1.4,1.6-3.4,0.5-4.3c-0.8-0.7-1.8-0.9-2.8-1.1
			c-4.7-1-9.4-2-14.1-2.9"/>
		<path d="M612.5,986.8c0-1.6-0.5-26.6-3.1-31.4c-2.5-4.8-2.8-12.7-2.8-12.7l2.6-24.8c0,0,8.7,25.4,12.6,30.3
			c3.9,4.9,12.9,17.8,21,19.7c8,1.9,23-2,23-2s18.3,18,18.2,21.2c-0.1,3.1-4.2,6-4.2,6l-50.9-8.7l-8.9-19.2l-0.7,21.8L612.5,986.8z"
			/>
	</g>
	<g>
		<g>
			<path class="st3" d="M590.6,703.3c0,0,2.2,14,1.6,38.7s18.6,177.2,18.6,177.2s28.7,0.2,29.4-2c0.7-2.2,11.3-164.3,13.7-202.2
				C655.1,695.8,590.6,703.3,590.6,703.3z"/>
		</g>
		<ellipse class="st3" cx="622.9" cy="711.6" rx="31.2" ry="30.7"/>
		<ellipse class="st3" cx="624.4" cy="911.4" rx="15.3" ry="17.3"/>
	</g>
</g>
<g id="R_Arm_2_">
	<g>
		<path class="st2" d="M764.1,492c2.1-6.9,1.7-14-0.8-20c-7.3-30-17.6-71.9-20.8-84.8c-0.2-1.1-0.5-2.1-0.8-3.2
			c-0.1-0.5-0.2-0.8-0.2-0.8l0,0c-3.5-11.1-12.2-20.3-24.1-24c-19.3-6-39.8,4.8-45.7,24.1c-2.4,7.7-2.1,15.7,0.4,22.8
			c6.6,24.4,37.3,80.6,43.2,91.4c3,6.5,8.3,11.6,15.4,13.8C744.6,515.6,759.5,506.9,764.1,492z"/>
	</g>
</g>
<g id="L_Arm_2_">
	<g>
		<path class="st2" d="M638.4,378.8c-6.5-18-26.3-27.3-44.3-20.9c-11.3,4-19.1,13.3-21.9,24.1c-2.4,8.2-17.3,60.8-21.7,92.4
			c-1.2,5-0.9,10.5,1,15.9c5,13.9,19.4,21.2,32.4,16.9c6.5-2.1,11.2-7.2,13.6-13.3l0,0c0,0,30.7-60.8,40.1-89.8
			C641,396.3,641.5,387.3,638.4,378.8z"/>
	</g>
</g>
<g id="Hair">
	<path d="M709.5,279.8c6.3,28.4,6.5,49.5-17.5,55.4c-28.2,7-76.2,12.9-84.3-15c-8.1-27.9,8.2-71.5,36.1-79.6
		C671.7,232.5,702.3,247.7,709.5,279.8z"/>
</g>
<g id="Body_2_">
	<path class="st3" d="M721.9,470.2c0,0-7.2,54.8,1.9,63.2H603.2c0,0,15.2-45.4,10.4-64.9L721.9,470.2z"/>
	<g>
		<g>
			<path class="st2" d="M721.7,357.3c-13.2,6.8-32.6,11-54.3,11c-24.7,0-46.5-5.6-59.5-14.1c-2.3,0.4-3.7,0.6-3.7,0.6
				c-14.1,0-25.4,11.4-25.4,25.4c-2.7,9.6,30.5,107.2,30.5,107.2l116.1,3.1l10.1-104.1c0.5-2,0.8-4.1,0.8-6.2
				C736.3,370.2,730.3,361.4,721.7,357.3z"/>
			<path class="st3" d="M607.9,354.3c13,8.5,34.8,14.1,59.5,14.1c21.7,0,41.1-4.3,54.3-11c-0.5-0.2-1-0.5-1.5-0.7
				c-0.3-0.1-0.5-0.2-0.8-0.3c-0.4-0.1-0.8-0.3-1.2-0.4c-0.2-0.1-0.4-0.1-0.7-0.2c-0.6-0.2-1.3-0.3-1.9-0.4c-1-0.3-2-0.7-3-1
				c-11.8-4.1-24.1-9.1-27.3-11.5c0,0-0.6,0-1.7-0.1l-1.6-27.8l-35.2,0.8l-0.3,25.7c-0.9,0-1.3,0-1.3,0S630.7,350.3,607.9,354.3z"/>
		</g>
		<path class="st7" d="M729.4,362.2c0,0-67.6,39.8-132.8-6.5"/>
		<polyline class="st7" points="734.6,391.2 722.8,489.3 609.5,487.3 		"/>
	</g>
	<g>
		<path d="M655.7,332.2c15.4,10.3,27.9,9.4,27.9,9.4l-1.5-26.6l-35.7,5.2C646.4,320.2,647.4,326.7,655.7,332.2z"/>
	</g>
</g>
<g id="L_Body">
	<g>
		<path class="st3" d="M668.6,647.1l8.1,77.3c21.8,18.6,42.6,21.3,61.2-0.4l8.4-75.9L668.6,647.1z"/>
	</g>
	<g>
		<path class="st3" d="M584.5,647.1l8.1,77.3c21.8,18.6,42.6,21.3,61.2-0.4l8.4-75.9L584.5,647.1z"/>
	</g>
	<g>
		<path class="st5" d="M739.6,564c-9.2-41.2-17.9-50.7-17.9-50.7l-114.4-4l-0.4,3.3c-16.4,21.6-32.3,68.1-30.5,119.2l3.1,36.7
			l169.8,3.6l0.8-29.4C749.3,602.2,744.5,586.1,739.6,564z"/>
	</g>
	<line class="st17" x1="579.7" y1="661.9" x2="749.4" y2="666"/>
</g>
<g id="R_Hand">
	<g>
		<path class="st2" d="M715.2,478.2c-3.2,16.2,7,30.6,22,33.6c15,3,29.1-6.4,32.3-22.9c3.1-16.3-6.3-31.8-21.3-34.8
			C733.1,451.2,718.4,462,715.2,478.2z"/>
		<g>
			<path class="st3" d="M815.6,369.5l-50.6,52l33,25.3c0,0,34.4-59.3,35.9-65.8L815.6,369.5z"/>
			
				<ellipse transform="matrix(0.1737 -0.9848 0.9848 0.1737 308.5404 1122.7362)" class="st3" cx="823.3" cy="377.5" rx="11.1" ry="11.1"/>
		</g>
		<path class="st2" d="M718.7,469.8c0,0,3.3-10.8,25.2-29.9l23.6-21.8l37.3,30.2c0,0-31.9,44.2-43.3,56.4L718.7,469.8z"/>
		<polyline class="st7" points="732.5,450.5 767.4,418 804.7,448.3 776.2,485.9 		"/>
		<line class="st7" x1="760.7" y1="424.2" x2="799" y2="455.8"/>
	</g>
</g>
<g id="R_Finger_2_">
	<g>
		<path d="M755.6,418.3l43.8,1.9c2.5,0.1,5.6-1.8,7-4.2l45.1-79.2c1.4-2.4,0.5-4.5-2-4.6l-43.8-1.9c-2.5-0.1-5.6,1.8-7,4.2
			l-45.1,79.2C752.2,416.1,753.1,418.2,755.6,418.3z"/>
		<path class="st5" d="M760.8,418.5l43.8,1.9c2.5,0.1,5.6-1.8,7-4.2l45.1-79.2c1.4-2.4,0.5-4.5-2-4.6l-43.8-1.9
			c-2.5-0.1-5.6,1.8-7,4.2l-45.1,79.2C757.4,416.3,758.3,418.4,760.8,418.5z"/>
		<ellipse transform="matrix(0.5592 -0.8291 0.8291 0.5592 76.8398 820.5907)" cx="810" cy="338" rx="3.2" ry="2.4"/>
		<ellipse transform="matrix(0.5592 -0.8291 0.8291 0.5592 70.0518 820.5313)" cx="806.6" cy="344.4" rx="1.8" ry="1.4"/>
	</g>
	<g>
		<path class="st3" d="M833.9,344.4L833.9,344.4c0.5-1.9,2.5-3,4.4-2.4l19.4,5.8c1.2,0.5,1.8,2.1,1.2,3.9l0,0
			c-0.5,1.9-2.5,3-4.4,2.4l-18.2-5.3C834.5,348.3,833.4,346.3,833.9,344.4z"/>
		<path class="st3" d="M850.1,360.1l-18.2-5.3c-1.9-0.5-3-2.5-2.4-4.4l0,0c0.5-1.9,2.5-3,4.4-2.4l19.4,5.7c1.2,0.5,1.8,2.1,1.2,3.9
			l0,0"/>
		<path class="st3" d="M826.6,357.5L826.6,357.5c0.5-1.9,2.4-3.1,4.3-2.6l19.6,5c1.2,0.4,1.9,2,1.4,3.9l0,0
			c-0.5,1.9-2.4,3.1-4.3,2.6l-18.4-4.6C827.3,361.3,826.2,359.4,826.6,357.5z"/>
		<path class="st3" d="M822.5,363.3L822.5,363.3c0.5-1.9,2.4-3.1,4.3-2.6l19.6,5c1.2,0.4,1.9,2,1.4,3.9l0,0
			c-0.9,2.3-2.4,3.9-4.3,3.5l-17.9-5.6C823.7,367.1,822,365.2,822.5,363.3z"/>
		<path class="st18" d="M835.7,348.5"/>
		<path class="st18" d="M830.7,354.7"/>
		<path class="st18" d="M827.6,360.8"/>
	</g>
</g>
<g id="L_hand">
	<g>
		
			<ellipse transform="matrix(0.9986 -5.196907e-02 5.196907e-02 0.9986 -24.2669 30.7818)" class="st2" cx="579.8" cy="482" rx="30" ry="27.6"/>
		<g>
			<path class="st3" d="M703.1,425.7l-58.7,42.7l-19.5-34.2c0,0,62.8-27.6,69.4-28.2L703.1,425.7z"/>
			
				<ellipse transform="matrix(0.1737 -0.9848 0.9848 0.1737 164.7562 1030.2312)" class="st3" cx="696.3" cy="416.9" rx="11.1" ry="11.1"/>
		</g>
		<path class="st2" d="M590.1,507.4c0,0,11.1-1.8,33.2-20.6l24.9-20.2l-24.6-41.3c0,0-48.3,25.3-62,34.8L590.1,507.4z"/>
		<path class="st7" d="M582.3,448.1l41.4-22.8l24.6,41.3l-36.5,29.3c0,0-18.4,12.2-24.9,13.4"/>
		<line class="st7" x1="641.1" y1="472.2" x2="615.3" y2="429.9"/>
	</g>
</g>
<g id="L_Finger_2_">
	<g>
		<path class="st3" d="M743.3,387.4l-0.2-3.3c-0.1-1-0.9-1.8-2-1.8l-18.7,1c-1,0.1-1.8,0.9-1.8,2l0.2,3.3c0.1,1,0.9,1.8,2,1.8
			l18.7-1C742.6,389.4,743.4,388.5,743.3,387.4z"/>
		<path d="M751.1,406.8l1.9-1.4c0.6-0.4,0.7-1.3,0.3-1.9l-29.8-41.4c-0.4-0.6-1.3-0.7-1.9-0.3l-1.9,1.4c-0.6,0.4-0.7,1.3-0.3,1.9
			l29.8,41.4C749.6,407.1,750.4,407.2,751.1,406.8z"/>
		<path class="st3" d="M739.8,412.5c0,0-2.2,7.8-14.5,4.5c0,0-14.5,11.2-25.7,7.8c0,0-5.6-1.1-7.9-5.8c-1.5-3-2-8.7,1.8-12.8
			c0,0,19.6-20.5,28.1-23.4c0,0,3.7-1.6,5.9,0.6l-3.1,11.4l-4,8.9l1.5,5.4l5.6,1.1L739.8,412.5z"/>
		<path class="st7" d="M727,411.9c0,0,0,3.4-2.2,5.6"/>
		<path class="st3" d="M746.5,391.1L746.5,391.1c0.5-1.9-0.7-3.8-2.6-4.3l-19.6-4.8c-1.3-0.2-2.6,0.9-3,2.8l0,0
			c-0.5,1.9,0.7,3.8,2.6,4.3l18.3,4.6C744.1,394.2,746,393,746.5,391.1z"/>
		<path class="st3" d="M744.6,400.3l0.9-3.4c0.2-1-0.3-1.9-1.3-2.2l-21.7-5.7c-1-0.2-1.9,0.3-2.2,1.3l-0.9,3.4
			c-0.2,1,0.3,1.9,1.3,2.2l21.7,5.7C743.4,401.8,744.4,401.2,744.6,400.3z"/>
		<path class="st3" d="M741.9,406.6l0.9-3.4c0.2-1-0.3-1.9-1.3-2.2l-21.7-5.7c-1-0.2-1.9,0.3-2.2,1.3l-0.9,3.4
			c-0.2,1,0.3,1.9,1.3,2.2l21.7,5.7C740.6,408.1,741.6,407.5,741.9,406.6z"/>
		<path class="st3" d="M739.8,412.5l0.3-1.2c0.5-1.8-0.6-3.6-2.4-4.1l-18.6-4.9c-1.8-0.5-3.6,0.6-4.1,2.4l-0.1,0.4
			c-0.5,1.8,0.6,3.6,2.4,4.1l18.6,4.9C737.7,414.5,739.4,414.3,739.8,412.5z"/>
		<line class="st7" x1="723.5" y1="396.9" x2="741" y2="401.3"/>
		<line class="st7" x1="721.6" y1="402.6" x2="739.1" y2="407"/>
	</g>
	<line class="st17" x1="741" y1="393.8" x2="725.9" y2="389.9"/>
</g>
<g id="Face_2_">
	<g>
		<path class="st3" d="M634.8,273.5c0,3.7,0.9,7.1,2.5,10.3c2.5,13.5,8.4,29.1,8.4,29.1c1.9,19.1,24.8,19.5,24.8,19.5
			c2.3,0,4.4-0.2,6.5-0.7c12.1-2.8,17.5-15.7,20.6-26.1c3.9-13.3-0.3-27.9-2.3-33.7c-1.2-12.6-14.3-23.9-31.1-23.9
			C647.9,248,634.8,259.4,634.8,273.5z"/>
	</g>
	<path class="st7" d="M676.8,248.2c0,0,4.9,26.7-24.3,41.5"/>
	<g>
		<defs>
			<path id="SVGID_1_" d="M677.4,252.4c-9.4,31.5-25.4,41.2-25.4,41.2c1.5,13.1-2.7,37.8-2.7,37.8c-12.1-5.3-26.9-17.1-26.9-17.1
				c-12.7-9.7-9.1-23.6-9.1-23.6c3.1-22.9,17.4-38.7,17.4-38.7c9.2-11.7,40.8-9.7,40.8-9.7c7.5,0.4,6.6,6.4,6.6,6.4L677.4,252.4z"/>
		</defs>
		<clipPath id="SVGID_2_">
			<use xlink:href="#SVGID_1_"  style="overflow:visible;"/>
		</clipPath>
		<path class="st19" d="M677.4,252.4c-9.4,31.5-25.4,41.2-25.4,41.2c1.5,13.1-6.3,27.9-6.3,27.9c-8.2,3.4-11.6-3.4-11.6-3.4
			c-12.7-9.7-15.8-31.3-15.8-31.3c3.1-22.9,12.5-34.7,12.5-34.7c9.2-11.7,40.8-9.7,40.8-9.7c7.5,0.4,6.6,6.4,6.6,6.4L677.4,252.4z"
			/>
	</g>
	
		<ellipse transform="matrix(0.7702 -0.6378 0.6378 0.7702 -42.6443 480.3304)" class="st3" cx="645.2" cy="299.3" rx="9.5" ry="13.5"/>
	<path class="st7" d="M638.7,298.2c0,0-1.3-3.5,1-5.3c0,0,5.1-3.5,10.2,4.8"/>
	<g>
		<circle class="st9" cx="648.5" cy="306.1" r="2.8"/>
	</g>
	<path class="st7" d="M682.6,283.3c1.3,3.9,2.6,7.9,4.9,11.4c0.5,0.7,1,1.4,1.1,2.3c0.4,1.9-1.4,3.8-3.4,4.2
		c-1.7,0.4-3.7-0.3-4.3-1.9"/>
	<g>
		<path d="M686.7,281.6c0.3,0,0.7-0.2,0.9-0.5c0.7-1.2,2-2.1,3.4-2.5c1.4-0.3,2.9,0,4.1,0.7c0.5,0.3,1.1,0.2,1.4-0.3
			c0.3-0.5,0.2-1.1-0.3-1.4c-1.7-1.1-3.7-1.5-5.6-1c-1.9,0.4-3.6,1.7-4.6,3.4c-0.3,0.5-0.1,1.1,0.3,1.4
			C686.3,281.6,686.5,281.6,686.7,281.6z"/>
	</g>
	<g>
		<path d="M660.9,283.2c0.3,0,0.7-0.2,0.9-0.5c0.7-1.2,2-2.1,3.4-2.5c1.4-0.3,2.9,0,4.1,0.7c0.5,0.3,1.1,0.2,1.4-0.3
			c0.3-0.5,0.2-1.1-0.3-1.4c-1.7-1.1-3.7-1.5-5.6-1c-1.9,0.4-3.6,1.7-4.6,3.4c-0.3,0.5-0.1,1.1,0.3,1.4
			C660.6,283.2,660.7,283.2,660.9,283.2z"/>
	</g>
	<path d="M678.2,250.1c0,0,15,9,18.9,28.8c0,0,5.8-18.9-3.5-27.2c0,0-7.2-6.6-14.6-5.3L678.2,250.1z"/>
	<path class="st20" d="M698.1,299.3c3.6-1.2,6.3-4.8,6.3-9c0-4.4-2.8-8-6.7-9.1"/>
	<path class="st7" d="M697.8,281.2c-0.8-0.2-1.6-0.3-2.4-0.3c-5,0-9,4.2-9,9.5c0,5.2,4,9.5,9,9.5c1,0,1.9-0.2,2.8-0.4"/>
	<ellipse class="st7" cx="672.2" cy="291.5" rx="9" ry="9.5"/>
	<line class="st20" x1="655.7" y1="289.9" x2="648.2" y2="288.5"/>
	<line class="st7" x1="663.2" y1="291.3" x2="655.7" y2="289.9"/>
	<line class="st7" x1="686.4" y1="290.2" x2="681.3" y2="290.5"/>
</g>
<g id="Mouth_1_">
	<path class="st7" d="M686.7,310.1c0,0-7.9,3-11.9-4"/>
</g>
<g id="R_Eeys_2_">
	<path d="M689.3,287.1c0.4,1.4,1.8,2.2,3.2,1.9c1.4-0.4,2.2-1.8,1.9-3.2c-0.4-1.4-1.8-2.2-3.2-1.9
		C689.7,284.3,688.9,285.7,689.3,287.1z"/>
</g>
<g id="G_L_Eeys">
	<path d="M666.6,289.5c0.4,1.4,1.8,2.2,3.2,1.9c1.4-0.4,2.2-1.8,1.9-3.2c-0.4-1.4-1.8-2.2-3.2-1.9
		C667.1,286.7,666.3,288.1,666.6,289.5z"/>
</g>
<g id="L_Arm_1_">
	<g>
		<path class="st2" d="M1487.5,376.1c0.3-14.9-13.2-27.2-30.1-27.5c-5.8-0.1-11.3,1.2-16,3.6c-16.6,7.4-40.8,35.4-40.8,35.4
			c-24,26-69.1,65.4-76.2,71.1c-7.6,4.8-12.5,12.6-12.7,21.4c-0.3,14.9,13.2,27.2,30.1,27.5c8,0.1,15.3-2.4,20.9-6.7
			c80.9-47.8,122.1-113.9,122.1-113.9l-0.1-0.1C1486.4,383.7,1487.4,380,1487.5,376.1z"/>
		<path class="st7" d="M1413.9,373.5c0,0-62.7,66.5-94.7,88.9"/>
		<path class="st7" d="M1406.2,470.4c0,0-18.5,15.2-43.1,30.5"/>
	</g>
</g>
<g id="L_Finger_1_">
	<g>
		<g>
			<g>
				<g>
					<path class="st3" d="M1307.7,380.5c0,0,8.3-9.9,10.4-30.6c0,0,1.2-11,4.7-15.5c0,0,3.8-3.4-0.5-4.9c0,0-7.2-3.2-15.9,20
						c0,0-12.9-11.6-14.7-24.3c0,0-2-14.5-2.8-17.4c0,0-0.4-3.2-4.6-2.5c0,0-2.4,0.3-1.6,5.6c0,0,0.5,16,2.2,21.3c0,0,0.8,2.9-1,3.3
						c0,0-2.5,0.7-3.6-3.7c0,0-4.1,4.3-8.4,2.5c-6-2.5-9.6,2.2-6.5,9.8c0,0-8.4-0.3-7.2,3.8c3.6,12.8,13.3,28,23.2,37.5
						C1281.5,385.3,1295.9,394.5,1307.7,380.5z"/>
					<path class="st7" d="M1284.1,374.9c0,0,6.1-11.1-16.2-25.9c0,0-1.5-1.4-2.7-2.7"/>
					<path class="st7" d="M1294.9,369.4c2.2-13,9.4-16.3,9.4-16.3s1.5-1,2.3-3.7"/>
				</g>
				<path class="st3" d="M1294.8,346.5L1294.8,346.5c-1.4,1.5-4,1.7-5.8,0.5l-16.6-11.6c-1.8-1.2-2-3.5-0.6-5l0,0
					c1.4-1.5,4-1.7,5.8-0.5l16.6,11.6C1296,342.8,1296.3,345,1294.8,346.5z"/>
				<path class="st7" d="M1294.8,346.5L1294.8,346.5c-1.4,1.5-4,1.7-5.8,0.5l-16.6-11.6c-1.8-1.2-2-3.5-0.6-5l0,0
					c1.4-1.5,4-1.7,5.8-0.5l16.6,11.6C1296,342.8,1296.3,345,1294.8,346.5z"/>
				<path class="st3" d="M1288.8,351.2L1288.8,351.2c-1.4,1.5-4,1.7-5.8,0.5l-16.6-11.6c-1.8-1.2-2-3.5-0.6-5l0,0
					c1.4-1.5,4-1.7,5.8-0.5l16.6,11.6C1290,347.4,1290.3,349.7,1288.8,351.2z"/>
				<path class="st7" d="M1271.7,334.6l16.6,11.6c1.8,1.2,2,3.5,0.6,5l0,0c-1.4,1.5-4,1.7-5.8,0.5l-16.6-11.6"/>
				<path class="st3" d="M1283.1,355.3L1283.1,355.3c-1,1.8-3.5,2.5-5.5,1.6l-17.4-7.2c-2-0.8-2.9-3-1.9-4.7l0,0
					c1-1.8,3.5-2.5,5.5-1.6l17.4,7.2C1283.2,351.4,1284.1,353.5,1283.1,355.3z"/>
				<path class="st7" d="M1265.6,352l12,5c2,0.8,4.5,0.1,5.5-1.6h0c1-1.8,0.1-3.9-1.9-4.7l-17.4-7.2c-2-0.8-4.5-0.1-5.5,1.6v0"/>
			</g>
		</g>
	</g>
</g>
<g id="L_Hand_1_">
	<g>
		<g>
			<path class="st2" d="M1321.3,373.9c-0.2-0.5-51.6,13.6-51.6,13.6c15.9,48.5,40.7,150.3,92.9,110.7
				C1384.2,481.8,1336.2,405.3,1321.3,373.9z"/>
		</g>
		<path class="st7" d="M1355.7,443.7c0,0-13.7-34.3-34.4-69.8l-51.6,13.6c0,0,17.8,59.8,26.4,76.8"/>
		<line class="st7" x1="1329.6" y1="389.4" x2="1275.2" y2="404.4"/>
		<ellipse class="st7" cx="1318.9" cy="382.3" rx="3.7" ry="3.1"/>
	</g>
</g>
<g id="L_Thigh_1_">
	<g>
		<path class="st5" d="M1496.7,528.9c-28.2-6.7-56.4,10.1-64.8,37.8l-0.7-0.2C1419.9,612.1,1409,741,1409,741l0.1,0
			c-1,21.3,13.3,40.9,34.9,45.9c24.3,5.6,48.6-9.4,54.2-33.6c0.3-1.5,0.6-3,0.8-4.5l0.1,0c5.7-45.3,25.8-106.5,25.8-106.5
			c10.8-29.8,12.7-45,12.7-45l0,0c0.1-0.5,0.2-0.9,0.3-1.4C1544.7,565.9,1526.3,535.9,1496.7,528.9z"/>
		<path class="st20" d="M1533.7,560.2c0,0-59.9,128.3-62.1,186c0,0-1,14.3-0.2,38.1"/>
	</g>
</g>
<g id="LLeg">
	<g>
		<polygon class="st3" points="1436.2,935.1 1436.2,982 1478.9,982 1480,934.4 		"/>
		<g>
			<defs>
				<path id="SVGID_3_" d="M1478.5,960.1c0,0,9.7-0.7,10.1,11.2l0.5,33.5l-132.4,0.4c0,0-1.4-11.4,8.9-15.4c0,0,56.9-14.9,69.8-33.4
					h15.7c0,0,3.1,0,2.4,3.8l-0.2,14.3l15.7,0.2L1478.5,960.1z"/>
			</defs>
			<clipPath id="SVGID_4_">
				<use xlink:href="#SVGID_3_"  style="overflow:visible;"/>
			</clipPath>
			<path class="st21" d="M1478.5,960.1c0,0,9.7-0.7,10.1,11.2l0.5,33.5l-132.4,0.4c0,0-1.4-11.4,8.9-15.4c0,0,56.9-14.9,69.8-33.4
				h15.7c0,0,3.1,0,2.4,3.8l-0.2,14.3l15.7,0.2L1478.5,960.1z"/>
			<ellipse class="st22" cx="1357.6" cy="1002.8" rx="28.1" ry="24.9"/>
			<ellipse class="st22" cx="1499" cy="1002.8" rx="28.1" ry="24.9"/>
			<path class="st22" d="M1411.3,987.6l-1.5,0.8c-1.2,0.6-2.7,0.2-3.4-0.8l-20-30.7c-0.7-1-0.3-2.4,0.9-3l1.5-0.8
				c1.2-0.6,2.7-0.2,3.4,0.8l20,30.7C1412.9,985.7,1412.5,987,1411.3,987.6z"/>
			<path class="st22" d="M1423.4,981.5l-1.5,0.8c-1.2,0.6-2.7,0.3-3.4-0.7l-20.8-30.2c-0.7-1-0.3-2.4,0.8-3l1.5-0.8
				c1.2-0.6,2.7-0.3,3.4,0.7l20.8,30.2C1424.9,979.5,1424.5,980.9,1423.4,981.5z"/>
			<path class="st22" d="M1435.2,974.9l-1.5,0.9c-1.1,0.7-2.7,0.4-3.4-0.6l-21.8-29.7c-0.7-1-0.4-2.4,0.7-3l1.5-0.9
				c1.1-0.7,2.7-0.4,3.4,0.6l21.8,29.7C1436.7,972.9,1436.3,974.2,1435.2,974.9z"/>
		</g>
		<path class="st2" d="M1489.8,1009.4h-134.2c-1.4,0-2.5-1.1-2.5-2.5v-1.4c0-1.4,1.1-2.5,2.5-2.5h134.2c1.4,0,2.5,1.1,2.5,2.5v1.4
			C1492.3,1008.3,1491.2,1009.4,1489.8,1009.4z"/>
	</g>
	<g>
		<path class="st5" d="M1499,743c-2-16.5-15.4-30.8-34.6-34.7c-24.2-5-48.5,8.6-54.2,30.2c-0.6,2.4-1,4.9-1.1,7.3l0,0
			c0,0,0,0.2,0,0.5c0,0.3,0,0.6,0,0.8c-0.1,5,15.5,198.8,15.5,198.8l68.3,2.3C1492.8,948.2,1506.7,787.2,1499,743z"/>
		<line class="st23" x1="1494.5" y1="926" x2="1422.8" y2="924.5"/>
		<path class="st20" d="M1477,712.1c0,0-6.2,30.4-5.2,52.3l-2.2,160.9"/>
	</g>
</g>
<g id="R_Thigh_1_">
	<g>
		<path class="st5" d="M1620.9,748.8c1.2-18.9,4.7-99.5-15.5-154.8c-6.5-20.8-23.4-36.3-44.2-37.7c-28.1-1.9-52.7,22.3-54.9,54
			c-0.4,5.1-0.1,10.1,0.7,14.9l0,0c0,0,2.2,23.8,7.7,47c0,0,7.1,54.3,16.4,88.5c3.7,21.5,20.2,38.3,41.1,39.7
			c25,1.7,46.7-19.1,48.6-46.5C1620.9,752.2,1620.9,750.5,1620.9,748.8z"/>
		<path class="st20" d="M1573.5,558.8c0,0,22.4,25.2,25.7,88.5c0,0,2.1,70.4,1.5,112.4"/>
	</g>
</g>
<g id="R_Leg_1_">
	<g>
		<polygon class="st3" points="1583.1,935.1 1583.1,982 1625.8,982 1626.9,934.4 		"/>
		<g>
			<defs>
				<path id="SVGID_5_" d="M1625.4,960.1c0,0,9.7-0.7,10.1,11.2l0.5,33.5l-132.4,0.4c0,0-1.4-11.4,8.9-15.4c0,0,56.9-14.9,69.8-33.4
					h15.7c0,0,3.1,0,2.4,3.8l-0.2,14.3l15.7,0.2L1625.4,960.1z"/>
			</defs>
			<clipPath id="SVGID_6_">
				<use xlink:href="#SVGID_5_"  style="overflow:visible;"/>
			</clipPath>
			<path class="st24" d="M1625.4,960.1c0,0,9.7-0.7,10.1,11.2l0.5,33.5l-132.4,0.4c0,0-1.4-11.4,8.9-15.4c0,0,56.9-14.9,69.8-33.4
				h15.7c0,0,3.1,0,2.4,3.8l-0.2,14.3l15.7,0.2L1625.4,960.1z"/>
			<ellipse class="st25" cx="1504.5" cy="1002.8" rx="28.1" ry="24.9"/>
			<ellipse class="st25" cx="1645.9" cy="1002.8" rx="28.1" ry="24.9"/>
			<path class="st25" d="M1558.2,987.6l-1.5,0.8c-1.2,0.6-2.7,0.2-3.4-0.8l-20-30.7c-0.7-1-0.3-2.4,0.9-3l1.5-0.8
				c1.2-0.6,2.7-0.2,3.4,0.8l20,30.7C1559.8,985.7,1559.4,987,1558.2,987.6z"/>
			<path class="st25" d="M1570.3,981.5l-1.5,0.8c-1.2,0.6-2.7,0.3-3.4-0.7l-20.8-30.2c-0.7-1-0.3-2.4,0.8-3l1.5-0.8
				c1.2-0.6,2.7-0.3,3.4,0.7l20.8,30.2C1571.8,979.5,1571.4,980.9,1570.3,981.5z"/>
			<path class="st25" d="M1582.1,974.9l-1.5,0.9c-1.1,0.7-2.7,0.4-3.4-0.6l-21.8-29.7c-0.7-1-0.4-2.4,0.7-3l1.5-0.9
				c1.1-0.7,2.7-0.4,3.4,0.6l21.8,29.7C1583.6,972.9,1583.2,974.2,1582.1,974.9z"/>
		</g>
		<path class="st2" d="M1636.7,1009.4h-134.2c-1.4,0-2.5-1.1-2.5-2.5v-1.4c0-1.4,1.1-2.5,2.5-2.5h134.2c1.4,0,2.5,1.1,2.5,2.5v1.4
			C1639.2,1008.3,1638.1,1009.4,1636.7,1009.4z"/>
	</g>
	<g>
		<path class="st5" d="M1627.2,827.7c-1.3-55.4-5-79.5-8-88.3c-3.7-15.5-17-28.8-35.1-33.1c-24.6-5.7-48.7,7.4-53.8,29.5
			c-1,4.4-1.2,8.9-0.6,13.2l-0.1,0c2.3,25.6,37.2,200.7,37.2,200.7l67-9.5C1631.7,918.5,1627.2,827.7,1627.2,827.7z"/>
		<line class="st26" x1="1631.7" y1="918.5" x2="1563.7" y2="928.5"/>
		<path class="st20" d="M1618.1,920l-10.9-135.2c-1.2-29.5-8-49-8-49l3.4-21.7"/>
	</g>
</g>
<g id="Neck_1_">
	<g>
		<path class="st3" d="M1526.7,346.3c-10.1,9.5-23.5,10.6-45.2,8.5l-5.1-35.1l44.3-5.9L1526.7,346.3z"/>
		<path d="M1512.6,330.1c-17.5,12.2-32.9,13.7-32.9,13.7l-3.4-24.2l45.7-2C1522.1,317.6,1522,323.6,1512.6,330.1z"/>
	</g>
</g>
<g id="Face_1_">
	<path d="M1512.5,223.4c0.7-2,1.9-4.2,4-4.3c1.7,0,3.2,1.9,2.6,3.6c1.3-0.9,2.5-1.8,3.8-2.7c0.1,1.9,0.1,3.8-0.1,5.8
		c4.5-3.9,9.2-7.5,14.2-10.8c1.1-0.7,2.2-1.5,3.5-1.4c2.6,0.1,4.1,3.5,3.2,6c-0.9,2.5-3.2,4.1-5.4,5.6c3.4-1.8,7.1-3.1,11-3.6
		c-2.4,3.3-5.1,6.5-7.9,9.5c2.6,0,5.1,0.1,7.7,0.1c0.6,0,1.3,0.1,1.7,0.5c0.5,0.6,0.2,1.6-0.2,2.3c-0.7,1.5-1.4,2.9-2.1,4.4
		c1.5,0.6,3.2,0.3,4.9,0.5c1.6,0.2,3.4,1.2,3.5,2.8c0.1,1.2-0.8,2.2-1.7,3c-2.9,2.6-6.5,4.5-10.3,5.5c1.8,0.5,2.4,2.9,1.6,4.6
		c-0.8,1.7-2.4,2.7-4.1,3.6c-1.2,0.7-2.4,1.3-3.8,1.4c-3.4,0.2-6-2.9-8.3-5.5c-5.2-6-11.8-8.6-17.6-13.5
		C1507.8,236.4,1510.6,229.1,1512.5,223.4z"/>
	<path class="st3" d="M1490.1,329.5c-18.3-1.8-24.4-19.4-25-39.9l1.4-35.4c1.8-18.3,20.4-15.8,38.8-14l0,0c18.3,1.8,31.8,18,30,36.4
		l-4.6,23.8C1520.8,334.4,1490.1,329.5,1490.1,329.5z"/>
	<path class="st7" d="M1489.2,277.9c-1.8,8.2-6.5,11.6-7,13.4c-1,3.1,5.6,5,8.4,3.3"/>
	<path d="M1474.9,249.5c2.7-1.4,5.9-1.6,8.9-1.7c8.5-0.4,17.1-0.1,25.6,0.8c3,0.3,6.2,0.8,8.7,2.5c3.7,2.6,5.1,7.6,5.1,12.1
		c0,1.3,0,2.7-0.1,3.9c-0.3,4.1-0.2,8.3,0.4,12.4c0.1,0.9,0.4,2.2,1.4,5.5c0.2,8.5,3.1,14.4,5.6,17.5c2.7,0.1,2.6-2.8,3.5-5.3
		c4.7-13.5,6.7-27.9,5.7-42.1c-0.2-2.7-0.5-5.5-1.6-7.9c-1.8-3.9-5.3-6.7-9.1-8.7c-9.4-4.9-20.5-5.6-31.1-6.1
		c-7.4-0.4-15.1-0.7-22.2,1.4c-3.8,1.2-7.7,3.3-9.5,6.8c-1,2-1.3,4.3-1.5,6.6c-0.5,5.9-0.5,13.2,1.1,18.8
		C1468.2,260.1,1468.4,252.8,1474.9,249.5z"/>
	<g>
		<g>
			
				<ellipse transform="matrix(0.9193 -0.3936 0.3936 0.9193 8.5805 601.9158)" class="st7" cx="1472" cy="280" rx="13.1" ry="13.1"/>
		</g>
		<g>
			
				<ellipse transform="matrix(0.933 -0.3599 0.3599 0.933 -1.1101 561.0594)" class="st7" cx="1506.4" cy="283.5" rx="13.6" ry="13.6"/>
		</g>
		<line class="st7" x1="1484.2" y1="274.3" x2="1495.8" y2="275.4"/>
		<line class="st17" x1="1519.3" y1="278.4" x2="1534.6" y2="278.4"/>
	</g>
	<g>
		
			<ellipse transform="matrix(0.7005 -0.7136 0.7136 0.7005 255.5512 1178.9275)" class="st3" cx="1532.5" cy="285" rx="11.8" ry="8.9"/>
		<path class="st7" d="M1539.8,284.8c0-2.4-2.1-4.3-4.3-4.5c-2.2-0.2-4.4,0.9-6.3,2.3c-1.8,1.4-3.3,3.2-4.5,5.2"/>
		<path class="st7" d="M1532.9,289.6c0.9-1.3,1-3.2,0.2-4.6s-2.4-2.1-3.8-1.8"/>
	</g>
	<path class="st27" d="M1539.3,275c0,0,6.8,3.9,0.8,14.5"/>
	<path class="st20" d="M1510,233.3c0,0,21.6,1.8,25.3,9.9"/>
	<g>
		<path d="M1482.2,268.4c-0.2,0-0.5-0.1-0.6-0.3c-3.7-5.1-9.1-2.9-9.4-2.8c-0.4,0.2-0.8,0-1-0.4c-0.2-0.4,0-0.8,0.4-1
			c0.1,0,6.8-2.7,11.2,3.3c0.3,0.3,0.2,0.8-0.2,1.1C1482.6,268.4,1482.4,268.4,1482.2,268.4z"/>
	</g>
	<g>
		<path d="M1509.6,267.9c-0.2,0.1-0.5,0.1-0.7-0.1c-5.3-3.3-9.6,0.7-9.7,0.9c-0.3,0.3-0.8,0.3-1.1,0c-0.3-0.3-0.3-0.8,0-1.1
			c0.1-0.1,5.3-5.1,11.6-1.1c0.4,0.2,0.5,0.7,0.2,1.1C1509.8,267.7,1509.7,267.8,1509.6,267.9z"/>
	</g>
</g>
<g id="R_Eeys_1_">
	<path d="M1504.2,280.9c-0.5,1.4-2.2,2.1-3.7,1.6c-1.5-0.5-2.3-2.1-1.7-3.5c0.5-1.4,2.2-2.1,3.7-1.6
		C1504,277.9,1504.8,279.5,1504.2,280.9z"/>
</g>
<g id="L_Eeys_1_">
	<path d="M1478.5,278.6c-0.5,1.4-2.2,2.1-3.7,1.6s-2.3-2.1-1.7-3.5c0.5-1.4,2.2-2.1,3.7-1.6C1478.2,275.6,1479,277.2,1478.5,278.6z"
		/>
</g>
<g id="Mouth">
	<path class="st7" d="M1483.8,305.4c0,0,8.4,5.3,12.6-3.2"/>
</g>
<g id="Body_1_">
	<g>
		<g>
			<path class="st9" d="M1431.6,579.4c-2.5,0-4.1-0.5-5.1-1.4c-1.5-1.5-1.4-4.2-1.4-8c0-0.9,0-1.9,0-3
				c-0.3-40.9,1.4-170.3,1.4-171.6c0-18.7,4.1-38.3,34-41.9c13-1.6,58.8-5.9,91.4-5.9c6.9,0,12.8,0.2,17.7,0.6
				c24.9,1.9,41.6,19.3,41.5,43.1c-0.2,88.4,2.4,155.8,4.8,167.7c-0.3,7.9-3.5,19.6-11.3,19.6
				C1604.7,578.7,1431.6,579.4,1431.6,579.4z"/>
			<path d="M1552,348.1c6.9,0,12.8,0.2,17.7,0.6c24.6,1.9,41.1,19,41.1,42.6c-0.2,88.3,2.3,155.7,4.8,167.8
				c-0.3,7.7-3.3,19.1-10.8,19.1l-0.1,0l-172.9,0.6l-0.1,0c-2.3,0-3.9-0.4-4.7-1.3c-1.3-1.3-1.3-4-1.2-7.6c0-0.9,0-1.9,0-3
				c-0.3-40.9,1.4-170.3,1.4-171.6c0-18.5,4-37.8,33.5-41.4C1473.6,352.4,1519.3,348.1,1552,348.1 M1552,347.1
				c-32.6,0-77.9,4.2-91.5,5.9c-28.7,3.5-34.4,21.6-34.4,42.4c0,0-1.7,130.1-1.4,171.6c0.1,8.1-1.2,12.9,6.9,12.9c0,0,0.1,0,0.1,0
				l172.9-0.6c0,0,0.1,0,0.1,0c8.5,0,11.6-12.3,11.8-20.2c-2.6-12.3-5-83.1-4.8-167.7c0-24.5-17.1-41.7-42-43.6
				C1564.6,347.3,1558.5,347.1,1552,347.1L1552,347.1z"/>
		</g>
		<path class="st2" d="M1621.3,612.3l-88.2,3.7c-9.4-122.8,3.7-271.6,3.7-271.6c11.9,0,32.4,2.3,32.4,2.3c44,3.6,43.4,45,43.4,45
			C1613.3,442.5,1617.7,558,1621.3,612.3z"/>
		<path class="st2" d="M1407.4,615.5c5.1-64.5,14.8-201.4,16.9-220.7c0,0-16.9-35.3,35.6-43.7l16.9-2.3c0,0-14,176.5-23.3,266.8
			L1407.4,615.5z"/>
		<path class="st7" d="M1424.5,394.8c0,0-12.9,167.9-14.5,186.1"/>
		<path class="st3" d="M1476.9,348.6c0,0,1,22.4,21.6,23.1c31.3,1,31.1-25.3,31.1-25.3L1476.9,348.6z"/>
	</g>
	<g>
		<path d="M1501.8,369.4l-8.8-0.3c-3.3-0.1-5.6,2.9-4.2,5.6l4.1,7.8c1.5,2.9,6.1,3.1,7.9,0.3l4.7-7.5
			C1507.1,372.6,1505.1,369.5,1501.8,369.4z"/>
		<polygon points="1499.7,380.7 1516.2,513.5 1491.3,539 1473.8,510.7 1495.3,380.7 		"/>
	</g>
	<g>
		<path class="st28" d="M1463.2,509.6l-15.2-92.7l12.7-16.8l-8.4-7.4l13-42.8l11.9-2.8C1477.1,347.1,1465.5,492.4,1463.2,509.6z"/>
		<path class="st28" d="M1530.2,513.5l23.9-96.3l-8.1-13.9l12.3-6.7l-10.6-52.5l-12.3-1.8C1535.4,342.4,1527.2,470.8,1530.2,513.5z"
			/>
		<g>
			<path class="st17" d="M1527.1,337.1c0,0-7.6,18.4-29.9,32.1c0,0,5.5,7,13.8,15.6c0,0,21.5-20,24.3-40.6
				C1535.3,344.2,1532.1,341.1,1527.1,337.1"/>
			<path class="st17" d="M1477.3,342.9c0,0,1.5,11.9,19.5,26.6c0,0-6.9,8-10.8,13c0,0-13.1-14.3-12.3-34.4
				C1473.8,348.1,1474.9,345.9,1477.3,342.9z"/>
		</g>
	</g>
</g>
<g id="R_Arm_1_">
	<g>
		<path class="st2" d="M1570.9,410.4c28.2,41.3,45.2,80.5,45.2,80.5c15.7,29.3,38.4,26,38.4,26l0.1-0.2c14.9-0.7,27.4-10,29.6-23
			c0.9-5.4-1.8-13.4-4.6-18.8c-14.8-29.3-39.9-80.8-39.9-80.8c-7.6-15.1-17-27.1-20.6-31.5c-4.9-7.2-13.4-12.7-23.8-14.3
			c-16-2.4-31,5.3-36,17.8C1552,383.5,1570.9,410.4,1570.9,410.4z"/>
		<path class="st7" d="M1615.2,489.1c0,0-20.6-43.3-42.5-75.9"/>
	</g>
</g>
<g id="R_Finger_1_">
	<g>
		<g>
			<g>
				<g>
					<path class="st3" d="M1550.4,462.9c0,0-33.5-11.1-43.3-12.7c0,0-5.9-1.4-11.7-0.2c0,0-10.3,1.5-19.8,7.5c0,0-8.1,5.1-12,11.9
						c0,0-2.2,3.5,0.9,5c0,0,3.2,1.9,5.7-2.6c0,0,5.5-6.4,11.6-9.8c3.7-2,7.5-3.2,10.5-1.2c0,0-5.8,2.3-11.4,12.1
						c-2.8,4.9-4.1,9.3-3.2,17.4c0,0,0,3.2,3,3.5c0.7,0.1,2.2-0.4,3-1.8c0,0,0.6,3.7,4,3.6c0.9,0,2.3-0.6,2.9-3.1
						c0,0,0.4-4.2,1.7-6.3c0,0-0.3,4.1,2.5,7.3c0,0,2.6,3.7,5.3,1.8c0,0,2.3-1.3,0.5-6.1c0,0,0-6.2,1.9-8c0,0,2.3-2.5,4.1-3.8
						c0,0,2.2-1.9,5.9,0.7c0,0,19,12.4,30.6,7.8L1550.4,462.9z"/>
					<path class="st7" d="M1492.2,487.5c0,0,1.1-8.6,2.1-10.3c0,0,1.5-2.9,7.9-6.7"/>
					<path class="st7" d="M1483.7,491.9c0,0,1.7-13.7,4.7-18c0,0,2.3-5.2,9.3-8.3"/>
				</g>
			</g>
		</g>
		<path class="st3" d="M1495.1,450l-3.4-6.2c0,0,16.4,5.8,20.4,7.5L1495.1,450z"/>
		<path class="st7" d="M1463.7,469.6c0,0,5.2-13.8,31.4-19.6l-4-6.6"/>
	</g>
</g>
<g id="B2_R_Hand">
	<g>
		<path class="st2" d="M1544.7,458.2c-0.5,0-9.6,44.1-9.6,44.1c54.2,9.9,154.6,38.5,148.8-19C1681,453.8,1599,461.2,1544.7,458.2z"
			/>
		<path class="st7" d="M1641,461.1c0,0-55.6-1.5-96.3-2.9l-9.6,44.1c0,0,43.4,10,79.3,14"/>
		<ellipse class="st7" cx="1551" cy="468.3" rx="3.1" ry="2.8"/>
		<line class="st7" x1="1565.4" y1="458.7" x2="1554.6" y2="506.3"/>
	</g>
</g>
<g id="Chair">
	<g>
		<path class="st29" d="M1289.6,541.7l-123.5-0.1c-12.2,0-24,5.2-33.7,14.8l-12,11.9c-4.3,4.2-6.4,11.2-5.5,18.1l1.6,12.2h123.5
			L1289.6,541.7z"/>
		<g>
			<path class="st29" d="M1161.4,1014.7l-46.5-428.1c-0.9-6.8,1.2-13.8,5.4-18l8.7-8.8l50,455H1161.4z"/>
		</g>
		<path class="st30" d="M1148.2,713h-141.4c-8.6,0-15.5,9-15.5,20.1l0,0h172.4l0,0C1163.7,722,1156.7,713,1148.2,713z"/>
		<rect x="1000" y="750.7" class="st29" width="110.4" height="37.7"/>
		<rect x="1101.7" y="750.7" class="st29" width="172.4" height="37.7"/>
		<path class="st29" d="M1249.4,730.6h-225.2c-13.6,0-24.7,9-24.7,20.1l0,0h274.6l0,0C1274.1,739.6,1263,730.6,1249.4,730.6z"/>
		<polygon class="st29" points="982.5,740 1000,741 1000,1022.6 982.5,1021.6 		"/>
		<g>
			<path class="st29" d="M1284.9,1023l-46.3-434.9c-0.8-6.6,3-12.6,8.1-12.6h8l48,447.5H1284.9z"/>
		</g>
		<path class="st29" d="M1238.4,586.5l4.2,32.2l23.8-18.4c0,0,24.2,4.9,43.6,1.2c3-0.6,5.3-3.7,5.7-7.5l5-43.8
			c0.5-4.5-2.2-8.5-5.7-8.5h-25.3c-12.2,0-24,5.2-33.7,14.8l-12,11.9C1239.6,572.7,1237.5,579.6,1238.4,586.5z"/>
	</g>
</g>
<g id="L_Thigh">
	<path class="st5" d="M1168.9,677.2c0,0,1.6,36-8.8,49.8c-10.5,13.8-168.2,24.7-168.2,24.7s-68.6-70.2-42-84.5
		s138.2-26.6,138.2-26.6L1168.9,677.2z"/>
</g>
<g id="L_Leg">
	<g>
		<path d="M866.5,961.3c0,0,2.4,45.7-6,49.8s-69.1-12.2-69.1-12.2s-44.2-15.8-52.7-27.2c-2-2.7,1.2-11,6.1-13.1
			c15.4-6.6,64.5,2.7,69-0.4c5.8-4.1,21.2-14.6,21.2-14.6L866.5,961.3z"/>
		<path class="st2" d="M882.8,931.6c0,0-16.9,66.5-20.6,72.1c-5.5,8.3-121.7-24.5-119.9-39.4c3.7-31.7,66.8-14.7,72.6-18.8
			l19.2-28.2L882.8,931.6z"/>
		<g>
			<g>
				<path class="st9" d="M802.5,949.8c0.8-3.7,2.1-7.2,3.9-10.5c0.9-1.6,1.8-3.2,3.1-4.5c0.8-0.8,2.1-1.5,2.1,0.1
					c0,1.3-0.6,2.7-1.3,3.8c-0.9,1.5-2,3-3.2,4.4c-2.3,2.7-5,4.9-8.1,6.6c-1.2,0.7-0.8,2.9,0.8,2.8c4.4-0.4,8.8,1,12.1,4
					c1.4,1.3,2.8,3.3,1.8,5.2c-0.7,1.3-2.5,1.9-4,1.8c-4.3-0.5-7-5-8.8-8.4c-1.1-2.1-2.1-4.3-3.5-6.2c-1-1.4-2.7-2.8-4.5-2.7
					c-2.5,0.1-3.1,2.5-3.4,4.6c-0.3,3-0.6,5.9-1,8.9c0.9-0.3,1.9-0.5,2.8-0.8c-1.3-2.2-2.7-4.4-4-6.6c-1-1.7-2.1-4.4-3.9-5.4
					c-1.8-1-3.7,0.2-4.5,1.9c-0.9,2-0.1,4,0.9,5.9c0.6-0.7,1.1-1.5,1.7-2.2c-3.3-1.2-6.1-3.2-8.3-5.8c-1.3-1.5-3.4,0.7-2.1,2.1
					c2.6,3,5.9,5.2,9.7,6.6c1.3,0.5,2.3-1.1,1.7-2.2c-0.4-0.8-1.5-2.6-0.6-3.4c0.3-0.3,0.4,0,0.7,0.5c0.4,0.6,0.8,1.3,1.2,2
					c1.7,2.8,3.4,5.5,5,8.3c0.8,1.4,2.6,0.7,2.8-0.8c0.3-2.7,0.6-5.4,0.9-8.2c0.1-0.5,0-2.3,0.8-2.3c0.9,0,1.8,1.4,2.1,2.1
					c2.5,4.2,4.3,9,8.1,12.3c2.9,2.6,7.3,4.1,10.8,1.7c4-2.6,3.1-7.6,0-10.6c-3.8-3.7-9.2-5.6-14.5-5.1c0.3,0.9,0.5,1.9,0.8,2.8
					c3-1.7,5.8-3.9,8.1-6.5c2.2-2.4,4.5-5.2,5.5-8.4c0.8-2.4,0.6-6-2.5-6.6c-3.5-0.6-6,3.8-7.5,6.3c-2.1,3.7-3.7,7.7-4.5,11.8
					C799.2,950.9,802.1,951.7,802.5,949.8L802.5,949.8z"/>
			</g>
		</g>
	</g>
	<g>
		<g>
			<path class="st5" d="M943.1,671.4c-22.6,5.7-128,249-128,249s62.5,42.2,72.1,37.7s109.5-207.2,109.5-207.2s21.9-47.1-8.1-69.1
				C963.6,663.5,956.5,668,943.1,671.4z"/>
		</g>
	</g>
</g>
<g id="L_Arm">
	<g>
		<path class="st3" d="M1051.5,526.8c0,0-25.7,45.6-28.5,47.1c-12.7,7.1-38.5-8.8-38.5-20.1c0-11.3,39.6-75.6,44.5-77
			C1034,475.4,1051.5,526.8,1051.5,526.8z"/>
		<g>
			<path class="st2" d="M1036.4,445.8c-8.2,11-33.2,55.4-33.2,55.4s15.5,11.3,29.7,29c6.9,8.6,17,29,17,29l34.3-109.4
				c6.7-18,8.2-37.5,8.2-37.5S1060.8,413.1,1036.4,445.8z"/>
			<path class="st7" d="M1046.2,443.6c-0.5,2.7,0.1,5.4,0.6,8c2,9.6,3.4,17,10.5,23.8"/>
			<path class="st7" d="M1013.5,492.4c6.4,5.7,26.1,17.7,34.6,41.7"/>
		</g>
	</g>
</g>
<g id="L_Hand">
	<g>
		<path class="st3" d="M960.7,534.3c0,0-17-98.3-15.6-99c1.5-0.7,23.3-10.6,25.5-7.6c2.2,2.9,48.7,105.2,53.7,130.7
			c1.1,5.6-13.2,16.3-16.2,16.2C974.9,573.9,959.9,542.3,960.7,534.3z"/>
		<circle class="st3" cx="958" cy="430.5" r="13.8"/>
	</g>
</g>
<g id="L_Finger">
	<g>
		<path class="st3" d="M958.2,439.6c-11.5-3.9-22.1-10.5-30.8-18.9c-4.3-4.1-8.1-8.7-11.2-13.7c-2.9-4.8-8.4-9-9.2-14.8
			c-0.1-0.7-0.1-1.4-0.4-2.1c-0.3-0.7-0.8-1.3-1.2-2c-1.1-1.9-0.9-4.4,0.5-6.1c-1.8-2.1-3.5-5-2-7.3c1.5-2.2,4.9-1.8,7.1-0.4
			c2.2,1.4,4,3.6,6.5,4.4c1.3,0.4,2.7,0.5,4,0.9c2.3,0.6,4.2,2.1,6,3.6c2.6,2.1,5.2,4.2,7.9,6.3c1.3,1.1,6.1,3.2,6.8,4.7
			c-1.9-4.3-3.8-8.6-5.7-12.9c-0.3-0.7-0.6-1.4-0.4-2.1c0.5-1.5,2.7-1.2,4-0.4c2.8,1.8,4.8,4.6,6.6,7.3c7.7,11.3,21.4,24,23.3,36.3
			C973.8,432.3,972.4,439.5,958.2,439.6z"/>
		<path class="st7" d="M942.3,394.2c1.6,1.6,3.2,3.2,4.8,4.8"/>
		<path class="st7" d="M907.8,390.8c0.3-0.6,1.2-0.3,1.8,0.1c2.5,1.8,4.7,4,6.4,6.5c3.3,4.7,7.4,10,11.6,13.9c1.6,1.5,4.1,2.1,6,3.2
			"/>
		<path class="st7" d="M905.8,382.9c0.5-0.9,1.7-1.1,2.6-0.8c0.9,0.3,1.7,1,2.4,1.7c5.3,5.2,10.3,10.6,15.4,15.9
			c1.2,1.3,2.7,1.9,4.3,2.7"/>
		<path class="st7" d="M908.7,373.9c3,1.6,5.6,4,8.1,6.4c3.5,3.3,7,6.7,10.5,10c3.4,3.2,7.2,7.9,11.1,10.5"/>
		<path class="st7" d="M934.4,409.9c1.2-2.5,2.8-4.8,4.7-6.8"/>
		<path class="st7" d="M949,405.7c0.6,5.4,3.3,10.6,7.5,14.1"/>
	</g>
</g>
<g id="R_Thigh">
	<g>
		<path class="st5" d="M1222.5,629.2c0,0,32.2,77.5-5.9,107.9c-13.4,10.6-138.8,22.6-138.8,22.6s-113.7-57.6-92.9-80.1
			c20.8-22.6,150-57.7,150-57.7L1222.5,629.2z"/>
		<path class="st20" d="M1185.8,641.4c0,0,3.2,21.5-8,28.7c-2.6,1.7-12.1,5.1-25,9.2"/>
	</g>
	<path class="st20" d="M971.2,690.8c3.6-5.2,8.3-9.7,13.8-13.2c6.3-4,14-8.2,23.4-12.6l37.7-11.5"/>
</g>
<g id="R_Leg">
	<g>
		<g>
			<path d="M1138.4,930.2c0,0,30.3,34.3,26.3,42.7c-4,8.4-61.7,33.5-61.7,33.5s-44.5,15.2-58.2,11.6c-3.3-0.9-5.9-9.3-3.3-14
				c8-14.8,52.2-38.1,53.7-43.3c2-6.8,7.5-24.7,7.5-24.7L1138.4,930.2z"/>
			<path class="st2" d="M1122.1,898.4c0,0,38.8,60.8,39.4,67.5c0.9,9.9-110.5,56.6-118.4,43.8c-16.8-27.1,43.1-53.1,45.1-59.9
				l-9.8-29.3L1122.1,898.4z"/>
			<g>
				<g>
					<path class="st9" d="M1081.1,960.8c-1.7-3.4-2.9-7.1-3.5-10.9c-0.1-0.7-0.9-7.9,1-6.7c1,0.6,1.4,2.3,1.6,3.3
						c0.4,1.9,0.4,3.8,0.4,5.7c-0.1,3.8-0.8,7.4-2.2,10.9c-0.6,1.5,1.5,2.4,2.5,1.5c3.1-2.9,7.3-4.5,11.6-4.3c1.6,0.1,3.6,0.5,4.5,2
						c1,1.6,0,3.6-1.4,4.7c-3.7,2.7-9.3,0.4-13-1.1c-3-1.3-8-4.4-11.1-1.8c-1.9,1.5-1.1,3.8,0,5.6c1.6,2.5,3.2,5,4.8,7.6
						c0.6-0.7,1.1-1.5,1.7-2.2c-2.4-0.9-4.9-1.8-7.3-2.7c-1.9-0.7-4.5-2.2-6.6-1.7c-1.8,0.5-2.5,2.5-2.1,4.2c0.5,2.1,2.3,3.2,4.1,4
						c0.1-0.9,0.2-1.8,0.4-2.7c-3.3,1.1-6.7,1.4-10.1,0.8c-1.9-0.3-2.7,2.5-0.8,2.9c3.9,0.7,7.9,0.5,11.7-0.8
						c1.1-0.4,1.6-2.2,0.4-2.7c-1-0.4-2.5-1-2.8-2.2c-0.1-0.5,0-0.6,0.5-0.4c0.8,0.2,1.6,0.6,2.4,0.8c3.1,1.1,6.2,2.3,9.3,3.4
						c1.2,0.5,2.4-1.1,1.7-2.2c-1.5-2.4-3-4.8-4.5-7.2c-0.3-0.5-1.4-1.7-0.8-2.2c0.5-0.4,1.6-0.1,2.2,0c2.4,0.7,4.7,1.9,7,2.8
						c2.4,1,4.8,1.7,7.3,2c4.2,0.4,9.3-1.4,10.2-6.1c0.9-4.7-3.2-7.3-7.3-7.7c-5.2-0.4-10.3,1.6-14.1,5.1c0.8,0.5,1.7,1,2.5,1.5
						c1.4-3.5,2.2-7.3,2.3-11c0.1-3.3,0.1-7-1.4-10c-1.2-2.3-4.2-4.2-6.4-2c-2.2,2.1-1.5,6.1-1.2,8.8c0.6,4.4,1.9,8.6,3.9,12.5
						C1079.4,964.1,1082,962.6,1081.1,960.8L1081.1,960.8z"/>
				</g>
			</g>
		</g>
	</g>
	<g>
		<g>
			<path class="st5" d="M979.8,683.2c-11.8,6.3-18.5,14.8-22.9,21.9c-11.9,19.3,116.3,237,116.3,237s62-13.8,65.6-23.5
				c3.6-9.7-71.1-195.9-71.1-195.9s-23.3-51.9-59.9-47.7C996.2,676.3,987.1,679.3,979.8,683.2"/>
		</g>
		<path class="st20" d="M990.2,785.4c0,0-11.8-24.3-24-51.9c-6.3-14.3-3.7-30.3,5-42.7"/>
	</g>
</g>
<g id="Neck">
	<g>
		<path class="st3" d="M1142.2,401.8c-27.2,16.5-38.9,15.5-44.5,7.6l0.9-27.9l41.2,1L1142.2,401.8z"/>
	</g>
</g>
<g id="Body">
	<g>
		<path class="st9" d="M1042.9,629c-0.7,1.5-19.1,14.2-19.1,14.2s89.9,18.3,103.8,19.1c13.9,0.7,34.3,2.3,42.4-2.1s36-21.2,36-21.2
			s-2.3,14,4.2,19.1c6.6,5.1,24-2.1,24-2.1l-5.6-32L1042.9,629z"/>
	</g>
	<g>
		<path class="st2" d="M1101.6,409.1c0,0,0.5,5.6,17,3.8c6.9-0.8,26.3-12.2,26.3-12.2l39.6,9.3c2.4,2.7,23.1,2.1,28.5,23.3
			c8,31.4,2.6,93.4,2.6,93.4l18.8,105.3c0,0-101.9,11.4-137,8.5c-35.1-2.9-57.2-8.5-57.2-8.5s22.3-198.5,26.7-204.4
			C1071,421.7,1089.7,409.8,1101.6,409.1z"/>
		<line class="st7" x1="1058.8" y1="470.8" x2="1041" y2="628.7"/>
	</g>
</g>
<g id="R_Arm">
	<g>
		<path class="st31" d="M1216,525.5c-1.9-16.4-3.9-32.9-5.8-49.3c-7.1-2-16.4-3.4-23.6-2.3c-1.1,0.2-2.3,0.5-2.8,1.6
			c-0.4,0.9-0.3,1.9-0.2,2.9c1.4,14,5.2,27.6,11.2,39.7c5.5,11.1,13.3,21.2,23.4,24.6C1218.6,537.3,1216.6,531,1216,525.5z"/>
		<g>
			<path class="st3" d="M1230.7,525.2l-51.6-2.1l-2.8,39.6c-7.1,19.8,7.1,24,20.5,33.2c0.2-0.2,23.2,6.5,23.3,6.4
				C1228.4,592.4,1230.7,525.2,1230.7,525.2z"/>
			<path class="st2" d="M1188.2,416.5c0,0,18-5.2,34.3,15.9s23.1,118.2,23.1,118.2l-77-4.2c0,0-9.2-67.1-5.7-87.6
				C1166.4,438.4,1176.9,419.4,1188.2,416.5z"/>
			<path class="st7" d="M1205.3,420.1c-14,2.9-25.3,12.7-30.3,24.7c-4,9.6-8,26.3-8,47.8"/>
			<path class="st7" d="M1172.6,536.5c0,0,45.4,6.4,67.8,4"/>
		</g>
	</g>
</g>
<g id="R_hand">
	<g>
		<g>
			<path class="st3" d="M1190.6,554.7l-124.2,0.8c-19-2.7-18.6,25.4-6.1,28c0,0,130.4,34.8,151.6,21.5
				C1226.6,583.2,1230.6,556.2,1190.6,554.7z"/>
			<circle class="st3" cx="1056.3" cy="569" r="14.3"/>
		</g>
		<path class="st3" d="M1225.6,579.8c3.4,20.6-10.8,27-24.1,27c-13.3,0-24.1-13.7-24.1-27c0-13.3,10.8-24.1,24.1-24.1
			C1214.9,555.7,1223.5,566.7,1225.6,579.8z"/>
	</g>
</g>
<g id="R_Finger">
	<g>
		<g>
			<path class="st5" d="M1016,518.7l-7.3,66.3c-0.3,2.8,1.6,5.4,4.5,5.9l32,5.4c3,0.5,5.8-1.5,6.2-4.5l9.6-65.5
				c0.4-2.9-1.5-5.6-4.4-6.1l-34.3-6.2C1019.3,513.4,1016.4,515.6,1016,518.7z"/>
		</g>
		<path class="st3" d="M1064.9,584.2c8.1-6.7,12.1-14.8,4.6-26.9c0,0-18-9.1-24.6-12c-5.4-2.3-28-3.9-32-4.1c-4-0.3-3.5,4.9,6.8,8.9
			c0,0-15.7,1-15.4,4.3c0.3,3.3,5.9,6.2,5.9,6.2s-1.9,7.4,4.1,8.5c0,0-1.1,4,0.1,5.6C1015.6,576.3,1035.9,589.4,1064.9,584.2z"/>
		<path class="st9" d="M1024.1,531.9L1024.1,531.9c-1.2-0.1-2-1.2-1.9-2.4l0.8-6.4c0.1-1.2,1.2-2,2.4-1.9l0,0c1.2,0.1,2,1.2,1.9,2.4
			l-0.6,6.1c0,0,0,1-1,2"/>
	</g>
</g>
<g id="Face">
	<polygon class="st32" points="391.9,393.3 293.8,394.8 306.1,525.6 405.1,519.7 	"/>
	<g>
		<ellipse transform="matrix(0.864 -0.5035 0.5035 0.864 -32.4788 594.3297)" class="st3" cx="1084" cy="357.3" rx="4.8" ry="8.9"/>
		<path class="st7" d="M1080.1,357.2c-0.3-1.8,0.5-3.3,1.6-3.5c1.1-0.2,2.5,0.6,3.6,1.8c1.1,1.1,2.2,2.4,3.1,4"/>
		<path class="st7" d="M1084.4,360.8c-0.7-1-1-2.5-0.8-3.5c0.2-1,0.9-1.6,1.8-1.4"/>
	</g>
	<path class="st3" d="M1127.5,390.1l-13.8,2.9c-10.4,2.2-20.6-4.4-22.8-14.8l-6.9-32.4c-2.2-10.4,4.4-20.6,14.8-22.8l13.8-2.9
		c10.4-2.2,20.6,4.4,22.8,14.8l6.9,32.4C1144.5,377.7,1137.9,387.9,1127.5,390.1z"/>
	<path d="M1087.3,359c0,0,0.3,0.2,0.8,0.5c1.9,1.3,6.7,4.7,8.5,5.1c2.3,0.5,26.3-5.9,26.3-5.9l8.7-11.4c0,0,6.9,1.1,6.9,1.8
		c-0.1,0.6,4.3,22.6,4,24.1c0,0.3,0.9,7.3,0.6,8c-2.3,7.1-5.9,10.2-11,11.5l-17.5,3.7c-13.6,1.9-21.3-4.9-23.3-13.4L1087.3,359z"/>
	<path class="st7" d="M1104.5,345.1c1.5,6.4-0.3,10.5,0,11.9c0.4,2.5,5.1,1.5,6.4-0.7"/>
	<path class="st7" d="M1091.4,346.3c0.5-1.2,1.5-2.1,2.7-2.6c1.2-0.5,2.5-0.5,3.7,0"/>
	<path class="st7" d="M1111.4,340.9c0.9-0.9,2.2-1.4,3.5-1.4c1.3,0,2.5,0.5,3.4,1.4"/>
	<path d="M1118.4,329.3c-1.2,1.2-2.5,0.3-4.1,1.1c-14,7.1-29.6,11.5-45.4,11.8c-2.6,0-5.7-0.3-6.9-2.5c-1.3-2.3,0.4-5.2,2.5-6.9
		c1.9-1.6,4.3-2.7,6.8-3.2c-3,0.6-6.6-0.4-9.1-1.9c-1-0.6-2-1.6-1.9-2.7c0-0.9,0.6-1.7,1.2-2.4c4-4.4,9.6-7.2,15.3-9.2
		c7.9-2.8,16.3-4.2,24.6-5.6c6.6-1.1,14-2.7,20.7-1.6c6,1,8.9,8,10.3,12.7c1.1,4,2.1,9.2,2.8,13.3c1,6.2-0.4,12.4-0.3,18.7
		c0,0.7,0,1.3,0,2c-2.9-4.7-5.8-8.9-8.3-13.7c-1.4,0.4-3-0.1-4.2-1c-1.2-0.9-2.2-1.9-2.9-3.2
		C1118.3,332.8,1118.3,331.7,1118.4,329.3z"/>
	<g>
		<path class="st3" d="M1129.8,345.6c1.6,4.2,6,5.4,9.9,2.7c3.9-2.7,5.8-8.3,4.2-12.5c-1.6-4.2-6-5.4-9.9-2.7
			C1130.1,335.8,1128.2,341.4,1129.8,345.6z"/>
		<path class="st7" d="M1142,337.3c-1-1.5-3.3-1.8-5-0.9c-1.7,0.8-2.8,2.5-3.5,4.2c-0.7,1.7-1,3.5-1,5.3"/>
		<path class="st7" d="M1139.1,343.3c0.1-1.2-0.7-2.5-1.8-3c-1.1-0.5-2.6-0.3-3.5,0.6"/>
	</g>
	<path d="M1090.3,365.5c-2.2-6.7-6.1-12.8-9.1-19.2c-1.9-4.1-3.5-8.5-2.8-12.9c0.7-5.1,4.3-9.3,8.5-12.2c1.3-0.9,2.8-1.7,4.4-1.8
		c1.6-0.1,3.3,0.7,3.9,2.2c2.4,6.5-7.7,11.7-9.6,16.9C1082.9,345.8,1088,358.5,1090.3,365.5z"/>
</g>
<g id="R_Eeys">
	<path d="M1117.9,345.5c-0.1,1.2-1.1,2.1-2.4,2.1c-1.2,0-2.2-1-2.1-2.2s1.1-2.1,2.4-2.1C1117,343.4,1118,344.3,1117.9,345.5z"/>
</g>
<g id="L_Eeys">
	<path d="M1099.4,350.2c-0.1,1.2-1.1,2.1-2.4,2.1c-1.2,0-2.2-1-2.1-2.2c0.1-1.2,1.1-2.1,2.4-2.1C1098.5,348,1099.5,349,1099.4,350.2
		z"/>
</g>
<g id="B1_Mouth">
	<g>
		<path class="st9" d="M1107.4,373.8c-1.3-1.8-2.1-3.6-2.1-3.6c4.1-0.4,5.8-2,12-5c0,0,0.2,0.5,0.3,1.3
			C1115.2,370,1111.5,372.6,1107.4,373.8z"/>
		<path class="st9" d="M1117.6,366.6c0.6,2.6,1.3,8.3-2.9,10.3c-3.1,1.5-5.7-0.8-7.4-3.1C1111.5,372.6,1115.2,370,1117.6,366.6z"/>
	</g>
</g>
<g id="Shape">
	<rect x="1122.6" y="762.6" class="st29" width="17.6" height="257.5"/>
</g>
<g id="B1_Table">
	<g>
		<rect x="628.8" y="599.4" class="st29" width="737.9" height="13.5"/>
		<line class="st33" x1="664.4" y1="615.1" x2="612.5" y2="1006.5"/>
		<line class="st33" x1="1316.1" y1="615.1" x2="1355.5" y2="1009.5"/>
		<g>
			<polygon class="st34" points="793.5,586.7 1032.3,586.7 1032.3,598.6 797.8,598.6 			"/>
			<g>
				<path class="st34" d="M794,589.6l170.4,0L917.8,466c-1.8-4.8-6.4-8-11.5-8l-144.1,0c-8.6,0-14.6,8.6-11.5,16.7L794,589.6z"/>
				
					<ellipse transform="matrix(0.6481 -0.7615 0.7615 0.6481 -102.2253 835.0479)" class="st35" cx="852.5" cy="528.1" rx="12.1" ry="16.1"/>
			</g>
		</g>
	</g>
</g>
</svg>
